<svg xmlns="http://www.w3.org/2000/svg" viewBox="0 0 228.12 494.43"><defs><style>.cls-1{isolation:isolate;}.cls-2{fill:#fff;}.cls-3{fill:#71471c;}.cls-4{fill:#3b2314;}.cls-5{fill:#d2cda7;}.cls-6{fill:#eacfab;}.cls-31,.cls-7{fill:#c9b5a7;}.cls-30,.cls-7{mix-blend-mode:multiply;}.cls-8{fill:#231f20;}.cls-9{fill:#fff100;}.cls-10{fill:#786c59;}.cls-11{fill:#6e5638;}.cls-12{fill:#d1b376;}.cls-13{fill:#9f7d4a;}.cls-14{fill:#2f2007;}.cls-15{fill:#cea553;}.cls-16{fill:#b59976;}.cls-17{fill:#e9cea9;}.cls-18{fill:#11402e;}.cls-19{fill:#fbc295;}.cls-20{fill:#ab5f3a;}.cls-21{fill:#f48755;}.cls-22{fill:#5dbbd0;}.cls-23{fill:#043841;}.cls-24{fill:#ffe486;}.cls-25{fill:#f7e6cb;}.cls-26{fill:#5c5142;}.cls-27{fill:#b27d38;}.cls-28{fill:#694715;}.cls-29{fill:#412700;}</style></defs><title>Boy</title><g class="cls-1"><g id="Layer_2" data-name="Layer 2"><g id="Layer_1-2" data-name="Layer 1"><path class="cls-2" d="M100,482.9a9,9,0,0,0-.08,1.41c0,.23,0,.46,0,.69a5.36,5.36,0,0,1-2.5,1.48,5.26,5.26,0,0,0-.12-1.32c-3.18-.25-6.39.25-9.59.15-3.67-.12-7.37-.08-11,0-3,.08-6.07.38-9.1.53a23.72,23.72,0,0,1-5-.29c-1.11-.19-2.16-1.34-3.15-2,0-.27-.05-.5-.15-.57l-.35-.22,0,0-.37,0v.1a4.47,4.47,0,0,0,0,1.79c.08,1,.16,2,.23,3,0,.33,0,.66.08,1a2.83,2.83,0,0,1,0,.29,2.63,2.63,0,0,0,0,1.71c3.13,3.68,9.74,3.39,14,3.11,6.78-.47,13.46-.4,20.24-1.16,1.55-.17,6.09.43,7.08-.78.66-.8.67-2.33.73-3.33S101.26,483.21,100,482.9Z"/><path class="cls-3" d="M99.87,483.21c0-.21-.56-3.57-.66-3.91a2.23,2.23,0,0,1,.06.41h0a7.51,7.51,0,0,0-.54-2.22s-.44-1.19-.75-1.83a13,13,0,0,0-1.79-3.24c0-.09,0-.16-.06-.18l-.17-.19a27.53,27.53,0,0,0,1.4-6.68c.06.07.11,0,.13-.26a10.45,10.45,0,0,0-.34-4.52,1.76,1.76,0,0,0-.71-.89A8.64,8.64,0,0,0,92,455.56s-.07.23-.08.37a7.5,7.5,0,0,0-.34-2.82,7.06,7.06,0,0,0-.71-1.32,6.47,6.47,0,0,0-3.08-2.29v.05a5,5,0,0,0-3.91-.69c-4.54-.55-9.43,1-10.78,6a4,4,0,0,0,0,.82l-.68.08a6.32,6.32,0,0,0-1.79.35l-.14,0a6.53,6.53,0,0,0-3.42.9,3.23,3.23,0,0,0-1.45,1.71,6.14,6.14,0,0,0-1.14,2.2.38.38,0,0,0-.07.21v.06a8.18,8.18,0,0,0,0,1.6c0,.23,0,.47,0,.71s0,.28,0,.42c0,.3,0,.59,0,.89a3.71,3.71,0,0,0,.11,1.17,3.56,3.56,0,0,0,0,.37,12,12,0,0,0,.7,3c-.65.79-1.23,1-1.93,1.72A16.88,16.88,0,0,0,59,479.66a6.49,6.49,0,0,0-.06,1.54v.5a5.92,5.92,0,0,0,.29,2.5A4.5,4.5,0,0,0,61.61,487c1.94.93,5,.79,7,.61,5.94-.57,11.85-1.56,17.83-1.21,2.81.16,12.52.93,13.19-1.19A14.35,14.35,0,0,0,99.87,483.21Zm-3.15-16.8,0,0,0,.14A.86.86,0,0,1,96.72,466.41Z"/><path class="cls-4" d="M60.9,474.39c3.56-3.67,6.79-5.52,11.76-6,5.88-.53,10.27,2.38,15.57,4.34-.11,0,.07-.83,0-.93-6.72-7-22.63-7.53-27.31,2.53v0Z"/><path class="cls-4" d="M72.87,455.82c-1-.4-2.11.15-3.11.35,0,0,0,.2,0,.19,0,.15,0,.74,0,1.05s.49.63.76.86c.84.71,1.77,1.23,2.1,2.41,0,0,0-.65,0-.8a10.79,10.79,0,0,0-.07-1.39c.15,1.06,0,.43.09,0s.09-.54.14-.82,0-2.38-.07-2.38a2.43,2.43,0,0,0-1.32.63c-.24.21.19,2.27,0,2.31a3.7,3.7,0,0,1,.88-.09c0-.71,0-1.42,0-2.13a7.33,7.33,0,0,0-.13,2,4,4,0,0,0,.27,1.62,4.29,4.29,0,0,1,0-1.07,3.93,3.93,0,0,0-.07-1.08,3.33,3.33,0,0,0-1.24-1.44,6.66,6.66,0,0,1,0,1.09,2.89,2.89,0,0,0,.06,1.1c.22.32.43.64.62,1,0-.68,0-1.36,0-2-.2-.25-.4-.49-.62-.73,0,.66,0,1.32,0,2,.1.06.5.42.57.41a10.53,10.53,0,0,0,0-1.92c-.43-.72-1.4-.79-2.08-.88.06,0-.12,1.58,0,1.65a10.18,10.18,0,0,1,1,.54c.34.19.88.25,1.12.61,0-.64,0-1.28,0-1.92-.1,0-.46-.39-.58-.47a6.6,6.6,0,0,1,0,1,3,3,0,0,0,.06,1,3.44,3.44,0,0,0,.62.79,5.83,5.83,0,0,1,0-1,2.67,2.67,0,0,0-.06-1c-.23-.36-.41-.75-.62-1.12,0,.73,0,1.46,0,2.19a3.42,3.42,0,0,1,1.24,1.4c0-.71,0-1.43,0-2.15a1.18,1.18,0,0,0-.16-.29c0,.52,0,1,0,1.56a2.39,2.39,0,0,1,.11-.65,8.69,8.69,0,0,0,0-2.13,3.76,3.76,0,0,0-.88-.09c0,.77,0,1.54,0,2.31a2.82,2.82,0,0,1,1.33-.51c0-.8,0-1.59-.07-2.38a16.31,16.31,0,0,0-.12,5.31l0-2.19c-.43-1.39-1.75-1.69-2.83-2.27,0,.23,0,.47,0,.69V457c0,.16,0,.32,0,.48.95-.69,2.21-.7,3.08-1.55a.33.33,0,0,0,0-.1Z"/><path class="cls-4" d="M93.64,456.54a.41.41,0,0,0-.11,0,.18.18,0,0,0,0-.1c-.31-.47-1.34-1.07-1.89-.86s-.43,3.77-.35,3.67c.31-.37,2.11-2.24,2.4-2.58C93.7,456.63,93.69,456.55,93.64,456.54Z"/><path class="cls-5" d="M76.77,454.21c2,.18,4.09-.36,6.14-.38s4.1.71,6.19.89c-.08,0,.09-1.53,0-1.6-3.37-1.78-9.1-1.87-12.31.31a2.52,2.52,0,0,0,0,.78Z"/><path class="cls-4" d="M99.11,478.81c-.94-2.63-2.4-6.83-4.65-8.8A5,5,0,0,0,92,467.27c.07,0-.13,1,0,1.15,1.85,1.73,3.44,5,2.68,7.75-.63,2.24-2.62,3.65-4.44,4.62a15.58,15.58,0,0,1-4.19,1.42l-.5.09c-3.26.58-6.77.53-9.82.87a70,70,0,0,1-9.46.67,24.52,24.52,0,0,1-4.19-.45,8.49,8.49,0,0,1-1.69-.53c-1.36-.55-.68-1.71-1,.91.08-.65-.27-2.33-.18-2.61-2.9,9.22,15.72,5.67,19.3,5.28,1.07-.12,2.31-.21,3.62-.34.05.36.11.61.16.6a49.73,49.73,0,0,1,11.44-.15c1.51.15,5.36.63,6-1.53h0s0,0,0-.06a1.55,1.55,0,0,0,.07-.31A13,13,0,0,0,99.11,478.81Z"/><path class="cls-4" d="M89.87,470.08l.06-.08h0c2-2.63,1.58-6.65,3.36-9.53a.84.84,0,0,0,.07-.32,11.59,11.59,0,0,1,1.88,1.39,4.75,4.75,0,0,1,1.67,1.8c0-.22,0-.43,0-.65v.88c0,.47,0,.93,0,1.4,0,.1,0,1.26.2,1.26h.07a.32.32,0,0,0,.08-.24,12.07,12.07,0,0,0,.09-4.11c-.07-.51-.16-.57-.21-.16a4.39,4.39,0,0,0-1.34-3.09,9.07,9.07,0,0,0-2.62-1.76l0-.05-.08,0a1,1,0,0,0-1.39.84,4.88,4.88,0,0,0,0,.61,18.6,18.6,0,0,0-.65,2.73c-.16.7-.31,1.4-.46,2.1a17.58,17.58,0,0,1-.59,2.92,4.57,4.57,0,0,1-.29.47c-.25.35-.12,1.36-.11,1.75C89.63,468.41,89.87,470.08,89.87,470.08Zm7.29-6.8c0,.36,0,.71.07,1.05l-.15-1.53C97.11,463,97.13,463.12,97.16,463.28Z"/><path class="cls-6" d="M83.28,411c-3.33,0-12.52-1.07-12.36-.16-.32,2.44.46,7.54.61,10,.24,3.94.38,7.88.49,11.82.08,3.22,1.1,20.19,1.24,20.6a.26.26,0,0,0,.15.16c0,.14.23.21.31,0a8.51,8.51,0,0,1,.43-.78,1.54,1.54,0,0,0,.18-.52c.31-.29.53-.63.83-.94s.6-.59.9-.89a3.19,3.19,0,0,0,1.11-.35c2.57-1.3,7.34-2,10-1,2.25.8,3.85,2.94,4.21,3a9,9,0,0,0,.3,1,.08.08,0,0,0,.15,0c0-.69,1.4-18.83,1.57-23.11.12-2.85.28-5.7.34-8.55,0-2.47.4-7.43.43-9.93C94.18,411.44,84.36,411,83.28,411Z"/><path class="cls-7" d="M83.28,411c-4,.41-13.31-2.08-12.36-.16-.1.75,0,4.05,0,4.81,2.26.22,4.87-.12,6.72,0,1.07.06,10,.33,10,.33s0,7.67-.09,10.15c-.06,2.85-.22,5.69-.33,8.54a107.3,107.3,0,0,1-1.07,12.72,6.59,6.59,0,0,1,.16,1.27c.29.08.55.22.81.29,2.39.66,3.85,2.94,4.21,3a9,9,0,0,0,.3,1,.08.08,0,0,0,.15,0c0-.69,1.4-18.83,1.57-23.11.12-2.85.28-5.7.34-8.55,0-2.47.54-7.18.54-10.34C94.29,411,84.35,410.92,83.28,411Z"/><path class="cls-8" d="M86.74,471.19c-6.69-4.49-14.58-6.05-21.6-1.51a14.31,14.31,0,0,0-6.24,12.26c.05,5.77,4.69,6,9,5.68a241.67,241.67,0,0,1,29.6-.62s0-.48,0-.49c-7.44-1.36-15-.63-22.49-.12-3.93.27-12.33,2.73-15.27-1.26s.62-10.48,3.35-13.29a15.34,15.34,0,0,1,6.15-3.61c5.92-2,12.36-.22,17.49,3.15,0,0,0-.16,0-.19Z"/><path class="cls-8" d="M91.82,467.62c4.61,3.66,7.21,8.93,8,15,0,0,0-.2,0-.25-.62-6-3.23-11.43-8-14.84,0,0,0,.08,0,.1Z"/><path class="cls-8" d="M74.18,461.83c-3-4-.94-9.05,2.61-11.16,2.1-1.24,4.77-1.31,7.1-1.46s4.79.23,6.58,2.2c2.52,2.77.29,8.59.16,12.23,0,.17.07,1.15.11.51.23-3.46,1.79-7.28,1-10.8-1.19-5.34-5.38-5.61-9.81-5.12-4.09.46-7.56,2.07-8.91,6.49-.76,2.45-.63,5.33,1.15,7.16,0,0,0,0,0-.05Z"/><path class="cls-8" d="M71.71,455.83c-3.5.76-6.78,1.1-7.5,5.47a18,18,0,0,0,.47,6.61c0,.16,0-.19,0-.23-.34-2.75-1-5.66.49-8.16,1.2-2.08,4.53-2.57,6.51-3.47,0,0,0-.22,0-.22Z"/><path class="cls-8" d="M93,456.54c.93,1.64,2.62,2.46,3.8,3.88,1.84,2.22-.14,6.95-.6,9.56,0,.11,0,.5,0,.52a20.35,20.35,0,0,0,1.39-8.34c-.16-2.94-2.53-4.53-4.64-6,0,0,0,.34,0,.4Z"/><path class="cls-9" d="M70.77,460.16a31.85,31.85,0,0,1,12.06-2.31c4.4,0,7.66,1.92,11.47,3.94-.07,0,.06-.59,0-.68-5.76-7-16.74-5.24-23.52-1.23,0,0,0,.27,0,.28Z"/><path class="cls-9" d="M71.34,461.54a23.39,23.39,0,0,1,9.83-1.43c3.41.24,6.33,2,9.52,3.07,0,0,0-.55,0-.6-5.55-4.89-13.3-5-19.35-1.22,0,0,0,.18,0,.18Z"/><path class="cls-9" d="M72.86,462.46c5.54-.91,10.72-.57,15.36,3-.08-.07.07-.56,0-.68-3.55-4.95-10.41-4.57-15.36-2.71,0,0,0,.39,0,.39Z"/><path class="cls-8" d="M99.52,481.46c.19,1.24.69,2.67-.18,3.73s-2.42.69-3.54,1.12a1.06,1.06,0,0,0,0,.5c1.43.62,3.66,0,4-1.78a6.48,6.48,0,0,0-.33-3.6v0Z"/><path class="cls-8" d="M59,483.22c-.27-.22-.36-.33-.69-.19-.08,0,0,.51,0,.59a26.47,26.47,0,0,1,.33,6.29s0,.32,0,.19a23.68,23.68,0,0,0-.34-7c0,.19,0,.39,0,.59a.69.69,0,0,1,.69-.19s0-.23,0-.25Z"/><path class="cls-8" d="M100.16,482.9l-.12,0v0a2,2,0,0,0,.57,1.26c.63.87.23,3.18.14,4.36-.06.73-.12,1.46-.22,2.19,0,.05,0,.16,0,.19a23.88,23.88,0,0,0,.39-5,3.75,3.75,0,0,0-.89-3c0,.12,0,.25,0,.37l.12-.17s0-.13,0-.14Z"/><path class="cls-8" d="M58.61,490.15c.2,2.37,3.43,2.88,5.12,3.23a68.36,68.36,0,0,0,13.55,1c4,0,8.07-.1,12.1-.39,2.86-.21,9.88.08,11.16-3.12,0-.07,0-.24,0-.29-1,1.42-4.2,1.46-5.66,1.71s-3.16.42-4.74.57c-3.53.31-7.07.4-10.6.49A96,96,0,0,1,66.18,493c-1.66-.19-7.3-.52-7.55-3.13,0-.17,0,.26,0,.32Z"/><path class="cls-10" d="M78,414.07c-2-.14-1.37,3.62-.9,4.76,1.45,3.55,5.23,3.38,7.39.68.06-.07,0-.48,0-.51-2,1.23-4,2.51-6.07.83-1.71-1.38-2.37-4.13-.4-5.53a.44.44,0,0,0,0-.23Z"/><polygon class="cls-10" points="72.85 454.83 70.49 409.98 71.04 409.95 73.41 454.79 72.85 454.83"/><polygon class="cls-10" points="92.1 457.15 91.54 457.12 94.01 411.01 94.56 411.05 92.1 457.15"/><path class="cls-2" d="M124.54,482.8a10.46,10.46,0,0,1,.08,1.42v.68a5.55,5.55,0,0,0,2.51,1.49,4.93,4.93,0,0,1,.12-1.33c3.18-.25,6.39.25,9.59.15,3.67-.12,7.36-.08,11,0,3,.09,6.06.38,9.1.53a23,23,0,0,0,5-.29c1.11-.18,2.16-1.34,3.16-2,0-.27,0-.5.15-.56l.35-.23,0,0,.37,0v.09a4.67,4.67,0,0,1,0,1.79l-.24,3c0,.33,0,.66-.07,1l0,.29a2.51,2.51,0,0,1,0,1.71c-3.13,3.68-9.74,3.4-13.95,3.11-6.78-.46-13.46-.4-20.25-1.15-1.55-.18-6.08.42-7.08-.79-.66-.8-.66-2.32-.72-3.33S123.27,483.11,124.54,482.8Z"/><path class="cls-3" d="M124.89,485.07c.67,2.13,10.38,1.35,13.2,1.19,6-.35,11.89.64,17.83,1.21,2,.18,5.06.33,7-.61a4.49,4.49,0,0,0,2.43-2.76,5.92,5.92,0,0,0,.29-2.5v-.49a6.43,6.43,0,0,0-.07-1.54,16.8,16.8,0,0,0-4.27-8.57c-.71-.76-1.28-.93-1.93-1.72a12.25,12.25,0,0,0,.7-3,3.45,3.45,0,0,0,0-.37,3.66,3.66,0,0,0,.1-1.17c0-.3,0-.59,0-.89l0-.42c0-.24,0-.47,0-.71a9.09,9.09,0,0,0,0-1.6l0,0s0-.11-.06-.22a6.31,6.31,0,0,0-1.14-2.2,3.23,3.23,0,0,0-1.45-1.71,6.68,6.68,0,0,0-3.43-.9l-.13,0a6.4,6.4,0,0,0-1.79-.36l-.68-.08a3.17,3.17,0,0,0,0-.81c-1.34-5-6.23-6.58-10.77-6a5,5,0,0,0-3.91.69v-.05a6.44,6.44,0,0,0-3.08,2.29A7.76,7.76,0,0,0,133,453a7.52,7.52,0,0,0-.33,2.82c0-.13,0-.38-.09-.36a8.54,8.54,0,0,0-4.44,4.14,1.64,1.64,0,0,0-.71.88A10.45,10.45,0,0,0,127,465c0,.22.08.33.13.26a27.46,27.46,0,0,0,1.41,6.68l-.17.19a.39.39,0,0,0-.07.18,13.81,13.81,0,0,0-1.79,3.24,19.25,19.25,0,0,0-.74,1.84,7.09,7.09,0,0,0-.54,2.21h0a1.55,1.55,0,0,1,.06-.41c-.11.33-.66,3.7-.66,3.9A14.52,14.52,0,0,0,124.89,485.07Zm2.92-18.59c0-.05,0-.1,0-.15l0,0Z"/><path class="cls-4" d="M163.63,474.27c-4.74-9.95-20.61-9.69-27.33-2.53-.09.1.11.9,0,.93,3-1.09,5.65-2.84,8.76-3.72a20.39,20.39,0,0,1,6.82-.62c4.91.3,8.29,2.33,11.73,6,0,0,0,0,0,0Z"/><path class="cls-4" d="M151.66,455.82c.89.84,2.15.87,3.11,1.56,0-.37,0-.75,0-1.11,0-.17-1.51.57-1.64.66a2.44,2.44,0,0,0-1.19,1.42l.06,2.23a16.33,16.33,0,0,0-.23-5.31c0,.79,0,1.59,0,2.38a2.82,2.82,0,0,1,1.33.51c0-.77,0-1.54,0-2.3a3.65,3.65,0,0,0-.88.08,10,10,0,0,0,0,2.1c.25.88.25-1.35-.13-.58l.06,2.15a3.5,3.5,0,0,1,1.23-1.41c0-.73,0-1.46-.05-2.19-.2.37-.38.77-.61,1.12-.13.19,0,.81,0,1a5.3,5.3,0,0,1,.06,1,3,3,0,0,0,.62-.8,2.53,2.53,0,0,0,0-1,8.63,8.63,0,0,1-.05-1c-.11.08-.48.47-.57.47,0,.64,0,1.29,0,1.93.19-.29.66-.42,1-.54s.74-.45,1.12-.62c.15-.06-.07-1.64,0-1.64-.68.09-1.65.15-2.07.87a8.66,8.66,0,0,0,0,1.93,4.32,4.32,0,0,0,.57-.42c0-.66,0-1.32,0-2-.22.24-.42.48-.62.73,0,.68,0,1.36,0,2.05.19-.34.41-.66.62-1s0-.87,0-1.1a8.51,8.51,0,0,1-.07-1.09,3.37,3.37,0,0,0-1.24,1.45,3.49,3.49,0,0,0,0,1.07,5,5,0,0,1,.07,1.08,3.74,3.74,0,0,0,.23-1.63,7.89,7.89,0,0,0-.19-2c0,.7,0,1.4,0,2.1a3.74,3.74,0,0,1,.89.08c-.16,0,.2-2.09,0-2.3a2.33,2.33,0,0,0-1.33-.63s0,2.15,0,2.38.07.36.1.54,0,.18,0,.28c.06.38,0,.37,0,0a10.9,10.9,0,0,0,0,1.4c0,.14.08.81.08.79a4.07,4.07,0,0,1,1.78-2.17,7.92,7.92,0,0,0,1-.89s0-.19,0-.21,0-.62,0-.41a3.7,3.7,0,0,0,0-.83c-1-.2-2.07-.75-3.08-.35a.17.17,0,0,0,0,.1Z"/><path class="cls-4" d="M130.89,456.44h.1a.38.38,0,0,1,0-.1c.31-.47,1.34-1.06,1.88-.85s.43,3.76.35,3.67c-.3-.37-2.1-2.25-2.39-2.59C130.83,456.53,130.83,456.45,130.89,456.44Z"/><path class="cls-5" d="M147.76,453.34c-3.23-2.16-9-2.12-12.33-.32a13.83,13.83,0,0,0,0,1.6c2.08-.18,4.08-.8,6.2-.88s4.07.55,6.11.37a2.88,2.88,0,0,0,0-.77Z"/><path class="cls-4" d="M125.41,478.71c.94-2.63,2.41-6.83,4.66-8.8a5,5,0,0,1,2.47-2.74c-.07,0,.13,1,0,1.15-1.85,1.74-3.44,5-2.68,7.75.62,2.25,2.61,3.65,4.44,4.62a14.85,14.85,0,0,0,4.18,1.42l.51.1c3.26.58,6.77.53,9.82.86a69.76,69.76,0,0,0,9.46.68,24.65,24.65,0,0,0,4.19-.46,8.67,8.67,0,0,0,1.69-.52c1.36-.56.67-1.72,1,.9-.08-.64.27-2.33.18-2.6,2.89,9.21-15.72,5.67-19.31,5.27-1.07-.12-2.3-.21-3.61-.33-.05.36-.11.6-.16.59a49.25,49.25,0,0,0-11.45-.14c-1.5.14-5.35.63-6-1.53h0s0,0,0-.06a2.84,2.84,0,0,1-.06-.31A13.16,13.16,0,0,1,125.41,478.71Z"/><path class="cls-4" d="M134.9,468.17c0-.39.14-1.4-.11-1.75a3.31,3.31,0,0,1-.29-.47,16.62,16.62,0,0,1-.59-2.92c-.16-.7-.3-1.4-.46-2.09a18.73,18.73,0,0,0-.65-2.74,4.24,4.24,0,0,0,0-.61,1,1,0,0,0-1.39-.84h-.07s0,0,0,0a9.29,9.29,0,0,0-2.62,1.77,4.44,4.44,0,0,0-1.35,3.08c0-.41-.13-.35-.21.16a12.13,12.13,0,0,0,.1,4.12.27.27,0,0,0,.08.23h.07c.17,0,.19-1.16.2-1.25,0-.47,0-.94,0-1.41,0-.29,0-.58,0-.88,0,.22,0,.44,0,.65a4.62,4.62,0,0,1,1.66-1.79,11.17,11.17,0,0,1,1.89-1.39.64.64,0,0,0,.07.31c1.78,2.88,1.34,6.9,3.36,9.53h0a.56.56,0,0,0,.05.08S134.89,468.31,134.9,468.17Zm-7.45-5.46c0,.5-.11,1-.16,1.52a8.93,8.93,0,0,0,.08-1C127.39,463,127.42,462.87,127.45,462.71Z"/><path class="cls-6" d="M153.5,410.24c-2.76-.16-21,1-23.47-.5,0,0,1.17,18.94,1.28,22.88.08,3.22.28,6.43.21,9.65,0,1.84.89,10.54,1,11a.29.29,0,0,0,.15.16c.05.14.23.21.32,0s0-.67.11-.92a2.35,2.35,0,0,0,.19-.66c.3-.28.53-.87.82-1.18s.75-.67,1.05-1a4.34,4.34,0,0,0,1.29-.25c2.57-1.31,7.45-1,10,.19A30.86,30.86,0,0,1,151,453a.08.08,0,0,0,.16,0c0-.69.21-1.45.17-2.16a3.31,3.31,0,0,0,.06-.48c0-.4,1.17-16.18,1.34-20.47.12-2.85.28-5.7.34-8.55C153.09,418.85,153.5,410.24,153.5,410.24Z"/><path class="cls-7" d="M136,447.07c.07-3.22-.13-6.44-.21-9.65-.11-3.95-1.27-22.88-1.27-22.88,1.82,1.1,12.37.75,18.81.56.11-2.56.22-4.86.22-4.86-2.76-.16-21,1-23.47-.5,0,0,1.17,18.94,1.28,22.88.08,3.22.28,6.43.21,9.65,0,1.84.89,10.54,1,11a.29.29,0,0,0,.15.16c.05.14.29.23.32,0,.52-3.33,2.79-4.11,3.05-4.21A17.9,17.9,0,0,1,136,447.07Z"/><path class="cls-8" d="M139.89,465.62c9.29-5.86,22.65,2.87,25.33,13.13,2.78,10.69-7.43,8.25-13,7.86-8.39-.59-16.93-1.63-25.28-.1,0,0,0,.5,0,.49a252.27,252.27,0,0,1,29.61.61c4.93.32,9.13-.22,9-6.48-.28-12.23-15.9-22-25.7-15.69,0,0,0,.17,0,.18Z"/><path class="cls-8" d="M132.68,467.52c-4.74,3.4-7.39,8.78-8,14.81,0,.06,0,.31,0,.28.78-6.05,3.35-11.32,8-15,0,0,0-.09,0-.1Z"/><path class="cls-8" d="M150.32,461.88c2-2,1.65-4.49,1.15-7.1-.79-4.15-4.55-5.81-8-6.43s-9.38-1.05-10.46,3.78c-.91,4.11.5,7.78.76,11.91.05.71.13,0,.11-.28-.14-3.61-1.7-8.27-.34-11.5,1.07-2.55,3.9-3,6.16-3.07a21.68,21.68,0,0,1,6.45.82c4.42,1.24,7.75,7.09,4.18,11.82,0,0,0,.05,0,.05Z"/><path class="cls-8" d="M152.79,456.05c1.75.79,3.59,1.35,5.32,2.2,3.09,1.52,2,6.52,1.67,9.39,0,.06,0,.37,0,.3a17.32,17.32,0,0,0,.47-6.57c-.74-4.43-3.95-4.76-7.5-5.54,0,0,0,.2,0,.22Z"/><path class="cls-8" d="M131.54,456.14c-2.07,1.43-4.57,3.11-4.63,6a22.47,22.47,0,0,0,1.4,8.34s.05-.37,0-.48c-.53-2.82-2-6.22-.91-9.06.75-1.93,3.13-2.63,4.12-4.42a2.49,2.49,0,0,0,0-.4Z"/><path class="cls-9" d="M153.73,459.88c-6.75-4-17.82-5.85-23.53,1.23-.07.09.08.65,0,.68,3.91-2,7-3.71,11.49-3.94a28.91,28.91,0,0,1,12,2.31s0-.26,0-.28Z"/><path class="cls-9" d="M153.16,461.36c-6-3.72-13.82-3.71-19.35,1.22-.06.05.06.59,0,.6,3.25-1.05,6.12-2.59,9.54-3.07a20.74,20.74,0,0,1,9.8,1.43s0-.17,0-.18Z"/><path class="cls-9" d="M151.64,462.07c-4.92-1.85-11.84-2.27-15.36,2.71-.08.11.09.62,0,.68,4.68-3.53,9.81-3.92,15.36-3,0,0,0-.37,0-.39Z"/><path class="cls-8" d="M125,481.43a6.24,6.24,0,0,0-.32,3.56c.29,1.83,2.65,2.43,4,1.82a1.05,1.05,0,0,0,0-.5c-1.18-.45-2.57-.1-3.55-1.12s-.32-2.58-.16-3.73c0,0,0,0,0,0Z"/><path class="cls-8" d="M165.54,483.47a.69.69,0,0,1,.69.19l0-.59a23.8,23.8,0,0,0-.33,7c0,.16,0,0,0-.08a26.62,26.62,0,0,1,.35-6.37c0-.08.05-.56,0-.59-.33-.14-.42,0-.69.19a.68.68,0,0,0,0,.25Z"/><path class="cls-8" d="M124.34,483l.12.17c0-.12,0-.25,0-.37-.93,1-.9,1.93-.88,3.29a25,25,0,0,0,.4,4.74s0-.14,0-.19a18.44,18.44,0,0,1-.2-6.28c.12-.56.71-.84.69-1.46,0,0,0-.1,0-.09l-.11,0s0,.14,0,.14Z"/><path class="cls-8" d="M165.87,489.8c-.27,2.66-5.86,2.94-7.57,3.16a90.19,90.19,0,0,1-13.35.43c-3.54-.07-7.07-.2-10.6-.49-1.59-.14-3.17-.34-4.75-.57-1.43-.22-4.71-.31-5.64-1.71,0,.06,0,.22,0,.29,1.25,3.07,7.73,2.82,10.4,3.06,3.78.33,7.57.44,11.35.45a89.5,89.5,0,0,0,13.88-.82c1.83-.28,6.08-.74,6.29-3.41a2.87,2.87,0,0,0,0-.39Z"/><path class="cls-10" d="M146.8,416.32c1.26.55,2.61.69,3.45,2,.71,1.08.24,2.25-.39,3.23a4,4,0,0,1-5.73,1.28c.06,0,0,.44,0,.52,2.24,2.65,5.47.91,6.4-2.15.8-2.67-.76-6.05-3.76-5.32a1.07,1.07,0,0,0,0,.47Z"/><polygon class="cls-10" points="151.47 454.04 150.91 454.01 153.28 409.16 153.83 409.19 151.47 454.04"/><polygon class="cls-10" points="132.22 456.36 129.76 410.26 130.31 410.23 132.78 456.33 132.22 456.36"/><path class="cls-11" d="M153.73,350.52c0-.87,0-1.74,0-2.6a1.82,1.82,0,0,1,.45-1.23c-.1.08-.27.21-.53.39-12.54,8.48-28,14.58-43.26,14.11-14.31-.44-29.17-3.85-41.8-10.79-.27-.15-.39,0-.41.22C92.35,370.56,128.67,367.93,153.73,350.52Z"/><path class="cls-11" d="M119.8,386.4c1.19,10.81,3.62,22.13,3.09,33a54.86,54.86,0,0,1,5.76,1.27c-1.21-11.18-3.46-22.16-4.89-33.57A25.79,25.79,0,0,0,119.8,386.4Z"/><path class="cls-12" d="M69.67,351.82c-.52-.39-1-.78-1.54-1.2,0,.67.53,2.29.53,2.88,0,3,0,6,0,9A144.27,144.27,0,0,1,68,380.66c-1.35,11-4.24,21.82-6.78,32.64.45.6.92,1.16,1.4,1.69C68.72,394.72,72.12,372.88,69.67,351.82Z"/><path class="cls-12" d="M161.68,412.29c.42-.5.84-1,1.23-1.57l0-.06c-3.1-11.32-6.6-22.76-7.93-34.45-.71-6.26-1-12.54-1.1-18.83l-.12-6.86c-.55.38-1.1.74-1.66,1.11C151.34,372.26,153.68,393.57,161.68,412.29Z"/><path class="cls-13" d="M152.07,351.63c-24.46,16.05-58.75,18.39-82.4.19,2.45,21.06-1,42.9-7.08,63.17,4.92,5.5,11.45,7.81,19,8.38a52.43,52.43,0,0,0,10.48-.14l.9-.15c6.12-10,5.41-22.9,6.76-34.74-.61.06-1.22.13-1.85.17-.36,0-.43-.53-.08-.62.66-.15,1.35-.33,2.05-.52,0-.23,0-.47.08-.7,0,.23,0,.47-.08.7,8.14-2.16,18.51-5.67,25.82-.6.39.27.16,1-.34.81s-1.08-.33-1.62-.47c1.43,11.41,3.68,22.39,4.89,33.57a24.69,24.69,0,0,0,3.75.64,52.45,52.45,0,0,0,10.48-.14c7.63-1,14-3.21,18.8-8.89C153.68,393.57,151.34,372.26,152.07,351.63Z"/><path class="cls-11" d="M101.56,421.06c-.79-11,1.91-22.25,2.22-33.23-1.31.2-2.65.37-4,.51-1.35,11.84-.64,24.74-6.76,34.74C95.92,422.57,98.68,421.48,101.56,421.06Z"/><path class="cls-14" d="M156.54,379.8c-1.85-11.14-1.55-22.54-1.82-33.79,0-.37-.46-.72-.81-.46-24.7,18-59,18.87-85.42,3.8a.45.45,0,0,0-.67.39c-.14,10.32.44,20.62-.59,30.92-1.11,11-4.42,21.71-6.42,32.59a.19.19,0,0,0,0,.18c2.09,7.07,12,9.84,18.27,10.85s17.57,1.73,23-2.6a.33.33,0,0,0,0-.53c1.5-10.85,2.62-22.41,1.85-33.34,5.34-.82,10.38-1.92,15.73-1.42a227.68,227.68,0,0,0,2.74,33.08.46.46,0,0,0,.08.62c5.55,4.22,16.58,3,22.92,1.94,6.18-1,15.89-4.26,17.91-11.12a.37.37,0,0,0,.29-.44C161.51,400.17,158.26,390.17,156.54,379.8Zm-13.66,41.38a52.45,52.45,0,0,1-10.48.14c-3.29-.26-6.31-1.51-9.51-1.91.53-10.88-1.9-22.2-3.09-33a25.32,25.32,0,0,1,5.58,1.18c.5.16.73-.54.34-.81-7.94-5.51-19.49-.89-27.87,1.12-.35.09-.28.65.08.62,2-.13,3.95-.39,5.85-.68-.31,11-3,22.27-2.22,33.23-3.17.46-6.2,1.75-9.44,2.17a52.43,52.43,0,0,1-10.48.14c-8.34-.62-15.4-3.33-20.45-10.07,2.54-10.82,5.43-21.6,6.78-32.64a144.27,144.27,0,0,0,.73-18.12c0-3,0-6,0-9,0-.82-1.12-3.65-.12-3.1,12.63,6.94,27.49,10.35,41.8,10.79,15.29.47,30.72-5.63,43.26-14.11.26-.18.43-.31.53-.39a1.82,1.82,0,0,0-.45,1.23c.08,3.15.11,6.3.17,9.46.11,6.29.39,12.57,1.1,18.83,1.33,11.69,4.83,23.13,7.93,34.45l0,.06C158,417.57,151.18,420.13,142.88,421.18Z"/><path class="cls-11" d="M103.75,416c-.39-.46-1-1.1-1-1.1a12.19,12.19,0,0,0-.54,1.53,2.92,2.92,0,0,1-.47.29A2.89,2.89,0,0,0,103.75,416Z"/><path class="cls-15" d="M103.75,416a18.41,18.41,0,0,0-2,.72c-2.52,1.26-9.21,1.25-12.57,1-4.69-.36-18-.86-27-9.65l.05-.26a4,4,0,0,1-.89-1.73,1.58,1.58,0,0,0-.43.34c-.07.09-1.51,7.7-1.38,8.74.73,2.46,10.81,7.4,13.22,8.3A50.12,50.12,0,0,0,85.24,426c2.79.29,16.56-.42,16.68-1,.21-1.06.55-2.31.81-3.51.36-1.7.82-3.3,1.36-5A1.94,1.94,0,0,0,103.75,416Z"/><path class="cls-11" d="M62.28,407.76l.39-2.14a3.53,3.53,0,0,0-1.28.41A4,4,0,0,0,62.28,407.76Z"/><path class="cls-14" d="M59.56,415.18c.57,2.58,4.25,4.1,6.2,5.24a53.88,53.88,0,0,0,11.66,5c7.45,2.24,16.84,2.62,24.38-.2.06,0,.06-.5.11-.5-3.78.35-7.46,1.21-11.26,1.36a45.3,45.3,0,0,1-11.21-1,50.47,50.47,0,0,1-10.87-4,58.37,58.37,0,0,1-5.22-2.82c-1.31-.79-3.23-1.57-3.76-3.21,0,0,0,.11,0,.14Z"/><path class="cls-14" d="M60.94,406.37a66.09,66.09,0,0,0-1.4,8.84c0,.13.07-.1.07-.13.46-2.91,1-5.83,1.38-8.75,0-.11,0,0-.05,0Z"/><path class="cls-14" d="M61,406.43a1.91,1.91,0,0,1,.83-.57,3.38,3.38,0,0,1,.88-.19s0-.1,0-.1a3.05,3.05,0,0,0-.94.17,1.23,1.23,0,0,0-.77.58s0,.09,0,.11Z"/><path class="cls-14" d="M103,416.22c-7.41,2.38-15.13,1.67-22.53.26a46,46,0,0,1-10.55-3.26c-3.47-1.59-5.93-4.05-8.7-6.66,0,0-.15.36-.1.44,4,6.14,11.89,8.37,18.41,9.77,7.71,1.67,15.81,2.47,23.46-.5,0,0,0,0,0,0Z"/><path class="cls-14" d="M102.67,414.58a1.65,1.65,0,0,0,.68,1c.14.13.28.27.41.41s.19.37.34.38.09-.35.09-.4a1.49,1.49,0,0,0-.62-1c-.15-.14-.67-.65-.87-.49a.19.19,0,0,0,0,.13Z"/><path class="cls-14" d="M104.15,416.09a81.61,81.61,0,0,0-2.43,9.34c0,.14,0,.32,0,.08a84.28,84.28,0,0,0,2.4-9.38s0-.1,0,0Z"/><path class="cls-11" d="M119.89,410.86l1.17-1.23s.31,1.5.32,1.77a2.61,2.61,0,0,0,.45.33A2.88,2.88,0,0,1,119.89,410.86Z"/><path class="cls-15" d="M119.89,410.86a17.24,17.24,0,0,1,1.94.87c2.45,1.47,9.12,1.94,12.49,1.91,4.7,0,18,.4,27.5-7.95l0-.28a3.93,3.93,0,0,0,1-1.71,1.9,1.9,0,0,1,.41.39c.07.09,1.05,8,.86,9-.88,2.46-11.24,6.8-13.71,7.55a50.64,50.64,0,0,1-12.79,1.94c-2.8.1-16.29-1.82-16.37-2.45-.14-1.1-.42-2.4-.6-3.64-.25-1.77-.62-3.44-1-5.23A1.86,1.86,0,0,1,119.89,410.86Z"/><path class="cls-11" d="M161.79,405.41l-.26-2.21a3.57,3.57,0,0,1,1.25.5A3.93,3.93,0,0,1,161.79,405.41Z"/><path class="cls-14" d="M164.05,412.87c-1,2.45-5.46,3.73-7.54,4.68a54.44,54.44,0,0,1-12,3.89,43.75,43.75,0,0,1-11.26.55c-4.12-.26-8-1.51-12.08-2.17,0,0,0,.48.1.51,7.19,3.2,15.95,3.33,23.42,2a53.93,53.93,0,0,0,12-4c2.19-1,6.64-2.52,7.42-5.25,0,0,0-.12,0-.14Z"/><path class="cls-14" d="M163.22,404.06c.18,2.93.53,5.89.81,8.81,0,0,.07.3.07.17a60.36,60.36,0,0,0-.83-8.89s-.05-.18-.05-.09Z"/><path class="cls-14" d="M163.23,404.07c-.12-.25-.45-.62-.72-.63a2.32,2.32,0,0,1-.51-.16,1.22,1.22,0,0,0-.42-.06s0,.09,0,.09a6.22,6.22,0,0,1,.87.25,2.67,2.67,0,0,1,.43.25,1,1,0,0,1,.37.37s0-.08,0-.11Z"/><path class="cls-14" d="M120.6,411.29c7.25,3.36,15,3.11,22.57,2.14,6.81-.88,15.42-2.61,19.87-8.69.05-.07-.11-.42-.09-.44-2.73,2.23-5.12,4.32-8.35,5.77a40.21,40.21,0,0,1-10.68,2.77c-7.7,1.13-15.86,1.36-23.33-1.6,0,0,0,.05,0,.05Z"/><path class="cls-14" d="M121,409.5c-.21-.18-.74.29-.92.43a1.45,1.45,0,0,0-.68,1c0,.05,0,.41.09.4s.23-.19.31-.29a4.23,4.23,0,0,1,.5-.45,1.61,1.61,0,0,0,.73-.93.19.19,0,0,0,0-.13Z"/><path class="cls-14" d="M119.46,411a82.76,82.76,0,0,0,1.78,9.5c0,.13.1.3.07,0a85.31,85.31,0,0,0-1.83-9.51s0-.1,0,0Z"/><path class="cls-16" d="M169.44,275.66l-4.36.83-10.89,2.08-3.06.59c-.15,0-.08,4.91,0,7.2,0,.52,0,.91,0,1.08,0,1.34.07,2.67.12,4,.06,1.92.16,3.83.27,5.74s.24,3.64.39,5.46c.12,1.53.27,3.05.42,4.58.06.55.1,1.11.16,1.67.17,1.55.32,3.13.47,4.71.24,2.47.51,4.95.83,7.43a22.63,22.63,0,0,0,1.82-5.08,35.72,35.72,0,0,0,.8-5.62c.15-2.25.15-4.55.1-6.83,0-2-.13-4-.17-6s0-4.1.09-6a22.74,22.74,0,0,1,.91-5.17c1.48-4.65,5-7.74,12.92-7.88v-.21C170.24,276.22,171.61,275.25,169.44,275.66Z"/><path class="cls-17" d="M157.32,286.37a22.74,22.74,0,0,0-.91,5.17c-.14,1.89-.14,3.9-.09,6s.13,4,.17,6c0,2.28,0,4.58-.1,6.83a35.72,35.72,0,0,1-.8,5.62,22.63,22.63,0,0,1-1.82,5.08c.08.56.14,1.13.22,1.69a61.35,61.35,0,0,0,1.73,8.23,31.88,31.88,0,0,1,2.89-3.94c2.21-2.65,4.66-5.11,6.63-8,.24-.35.47-.71.69-1.07a22.62,22.62,0,0,0,2.65-6.66,55.47,55.47,0,0,0,1-10.14l.06-1.68c.07-1.72.14-3.44.2-5.15q.12-3.5.21-7c0-1.07.07-2.14.09-3.22,0-1.88.05-3.77.05-5.65C162.31,278.63,158.8,281.72,157.32,286.37Z"/><path class="cls-18" d="M170.58,274.48l-19.94,3.81a.48.48,0,0,0-.35.46,208.45,208.45,0,0,0,.86,26.56c.76,8.33,1.16,18.25,4.29,26l0,0a.35.35,0,0,0-.05.08c-.24.41.35.73.62.36,5.25-7.14,12.59-12.95,14.05-22.14.8-5,.58-10.42.77-15.5q.36-9.62.33-19.23A.48.48,0,0,0,170.58,274.48Zm-.34,3.8c0,7.07-.25,14.15-.55,21.22s-.29,13.51-4.45,19.55c-2.9,4.21-6.85,7.54-9.52,11.91-2.06-7.08-2.46-14.76-3.25-22.06-.77-7.14-1.24-14.29-1.36-21.46,0-.89-.16-8.25,0-8.28l3.06-.59,10.89-2.08,4.36-.83C171.61,275.25,170.24,276.22,170.24,278.28Z"/><path class="cls-17" d="M65.21,325.4c-.57-2.43-.76-5.94-1.39-8.46H64c-.19-1.85-.32-3.69-.38-5.54a83.22,83.22,0,0,1,.29-10.47c.18-1.89.41-3.79.72-5.69q.61-3.9,1.61-7.81l-6.93-1-4.7-.68c-2.18-.32-1.11.24-1.32,2.44-.11,1.13-.19,2.26-.28,3.39q-.23,3-.33,6c-.12,3-.15,6-.08,9.05v.23a59.17,59.17,0,0,0,.43,6.07,29.84,29.84,0,0,0,4,12c.35.58.71,1.14,1.07,1.71,1.19,1.86,2.46,3.68,3.68,5.53A59.64,59.64,0,0,1,65,337.43c.28-2.31.55-4.6.83-6.9.08-.66.16-1.31.23-2-.26-1.08-.5-2.15-.72-3.22Z"/><path class="cls-16" d="M68.77,287.81l-2.5-.37q-1,3.92-1.61,7.81c-.31,1.9-.54,3.8-.72,5.69a83.22,83.22,0,0,0-.29,10.47c.06,1.85.19,3.69.38,5.53h-.41c.82,2.52.95,5.74,1.59,8.45a10.19,10.19,0,0,0,1.28-.64c.31-2.65.62-5.31.9-8,.18-1.69.36-3.37.52-5.07.38-4,.71-8,1-12.09,0-.25,0-.49,0-.73.07-1.23.15-2.46.25-3.69.15-2,.33-4.07.58-6.1C69.93,287.63,70.46,288.06,68.77,287.81Zm-3.86,29.13h0Z"/><path class="cls-16" d="M66,328.57c.16-1.27.31-2.54.46-3.81a8.12,8.12,0,0,1-1.18.59C65.53,326.42,65.77,327.49,66,328.57Z"/><path class="cls-18" d="M70.59,287.1l-17.25-2.52a.51.51,0,0,0-.62.47c-1.25,9.74-1.92,20.2-.51,29.95,1.26,8.75,7.78,16.18,12.45,23.34a.34.34,0,0,0,.61,0s.06,0,.06-.08A249.3,249.3,0,0,0,69,313.46c.84-8.57.7-17.22,2-25.76C71,287.46,70.87,287.14,70.59,287.1Zm-.85,2c-.4,3.26-.64,6.52-.83,9.79-.74,13-2.36,25.65-3.94,38.53-2.29-4.37-5.37-8.27-7.92-12.5-3.43-5.68-4.25-11.55-4.42-18.08a153,153,0,0,1,.69-18.66c.21-2.2-.86-2.76,1.32-2.44l4.7.68,9.43,1.38C70.46,288.06,69.93,287.63,69.74,289.11Z"/><path class="cls-19" d="M61.26,239.21c-9.41,11.21-13.32,27.21-13.41,41.63A12.83,12.83,0,0,0,49.71,283c0-19.93,5.58-41.17,23.92-51.29A21.87,21.87,0,0,0,61.26,239.21Z"/><path class="cls-20" d="M109,230.47l0-.3c-.08-.29-.16-.58-.23-.87.07.29.15.58.23.87.07-.72.15-1.44.25-2.15,0-.26.44-.18.44.06l0,1.27,0,0,0,0c0,1.09,0,2.17,0,3.26,2.31,6.54,6.16,12.56,7.85,19.31,10.64-7.74,22.24-13.58,32-22.2a6.4,6.4,0,0,0-.93-.19c-15.73-1.76-32-3.14-47.81-1.94a189.65,189.65,0,0,0-25.86,3.79c9,7,17.84,13.46,25.9,21.53C103.75,245.48,104.79,237.17,109,230.47Z"/><path class="cls-20" d="M150.1,261.77c.19,5.64.46,11.28.77,16.92a23.59,23.59,0,0,0,6.87,0C151.6,276.08,151.59,267.9,150.1,261.77Z"/><path class="cls-20" d="M63.37,287.7c2.13,0,4.25-.07,6.44.11.43-6.87.94-13.72,1.63-20.54,0,0,0,0,0,0v-.55C69.72,274.5,69.51,283.09,63.37,287.7Z"/><path class="cls-20" d="M137.91,354.68c7.29-2.78,13.1-6.85,19.58-11-.4-1-.76-2.07-1.11-3.12-13.3,8.83-28.43,13.36-42.88,19.26A85.26,85.26,0,0,0,137.91,354.68Z"/><path class="cls-21" d="M148.62,230.62c-9.52,8.13-20.66,13.83-30.93,21.3-1.69-6.75-5.54-12.77-7.85-19.31q.5,30.25,1.73,60.51c.46,11.53.85,23.06,1,34.6.15,10.18,1,20.88-.44,31,0,.26-.42.17-.44-.06-1.15-11.43-.14-23.29-.35-34.78s-.59-23.07-1.07-34.59c-.47-11.34-1-22.66-1-34,0-8.06-1-16.69-.23-24.79-4.25,6.7-5.29,15-8.07,22.44-8.06-8.07-16.94-14.5-25.9-21.53l-1.08.23-.36.09C55.29,241.82,49.75,263.06,49.71,283a17.39,17.39,0,0,0,8.49,4.23,26.26,26.26,0,0,0,5.17.48c6.14-4.61,6.35-13.2,8.09-21l.06.46a.16.16,0,0,1,.25.13c0,.87,0,1.74.08,2.61a229.56,229.56,0,0,1-4.17,77.64c13,9.56,28.69,13.38,44.95,12.36l.87-.06c14.45-5.9,29.58-10.43,42.88-19.26-3.94-12-4.75-25.65-5.28-38-.3-7.07-.54-14.1-1-21.15q-.08-1.22-.18-2.43a.21.21,0,0,1,0-.25c-.47-6.23-1-12.57-.29-18.77-.13-.38-.27-.76-.42-1.12.15.36.29.74.42,1.12,0-.05,0-.1,0-.15a.22.22,0,0,1,.43,0c0,.66.05,1.32.07,2,1.49,6.13,1.5,14.31,7.64,16.91,5.21-.71,10.09-2.8,15.33-4.11C170.3,257,165.84,237.79,148.62,230.62Z"/><path class="cls-19" d="M167.18,245a33.28,33.28,0,0,0-8.65-9.88c-2.29-1.79-5.76-4.65-8.86-5.44l-1,.9c17.22,7.17,21.68,26.33,24.45,43.95.52-.13,1-.26,1.57-.37C173.44,264.33,172.1,253.9,167.18,245Z"/><path class="cls-22" d="M71.46,267.23s0-.07.06-.09l-.06-.46Z"/><path class="cls-19" d="M71.85,269.88c.33,12.31-1.14,24.92-1.95,37.16-.45,6.79-1.17,13.54-2,20.28-.76,6.1-1.15,12.39-2.61,18.36.78.64,1.58,1.25,2.39,1.84A229.56,229.56,0,0,0,71.85,269.88Z"/><path class="cls-23" d="M152.43,229.86c-4.46-2.35-10-2.05-14.93-2.43-12.13-1-24.41-1.59-36.57-.8a182.28,182.28,0,0,0-27.19,4.09,23,23,0,0,0-12.34,7c-10.18,10.54-14.57,28.23-13.89,42.63-.11-.19-.24-.35-.34-.54s-.26,0-.2.12a9.69,9.69,0,0,0,.57,1.11.92.92,0,0,0,0,.16.14.14,0,0,0,.15.13c4,6.58,15,9.67,22.06,7.24q-.51,8.32-.92,16.61c-.34,6.8-1.12,13.57-1.94,20.32S64.65,339,64.73,345.7a.27.27,0,0,0,0,.34c11.35,12.42,30.53,15.71,46.54,15.22a88.07,88.07,0,0,0,25.76-4.83c7.32-2.51,15.86-6.31,21-12.27a.39.39,0,0,0-.07-.58c-2.56-13.72-5.11-27.05-5.83-41.05-.4-7.76-.87-15.51-1.29-23.26,7.43,1.8,17.69-.89,24.13-4.47a.36.36,0,0,0,.45-.38C175.17,256.62,168.89,238.55,152.43,229.86Zm-1.56,48.83c-.34-6.3-.65-12.6-.84-18.91a.22.22,0,0,0-.43,0c-.7,6.24-.2,12.64.27,18.92a.21.21,0,0,0,0,.25q.1,1.21.18,2.43c.5,7.05.74,14.08,1,21.15.58,13.47,1.47,28.46,6.39,41.15-6.48,4.15-12.29,8.22-19.58,11a86,86,0,0,1-25.28,5.2c-17.26,1.08-33.86-3.29-47.34-14.2,1.46-6,1.85-12.26,2.61-18.36.83-6.74,1.55-13.49,2-20.28.87-13.1,2.52-26.64,1.87-39.77a.17.17,0,0,0-.33,0c-.69,6.82-1.2,13.67-1.63,20.54-3.93-.32-7.63.24-11.61-.59a16.33,16.33,0,0,1-10.35-6.38c.09-14.42,4-30.42,13.41-41.63A21.9,21.9,0,0,1,74,231.61a189.91,189.91,0,0,1,26.94-4c15.8-1.2,32.08.18,47.81,1.94,3.31.37,7.27,3.66,9.79,5.63a33.28,33.28,0,0,1,8.65,9.88c4.92,8.86,6.26,19.29,7.46,29.16C166.52,275.92,159.44,280,150.87,278.69Z"/><path class="cls-23" d="M111.57,293.12q-1.3-32.52-1.81-65c0-.24-.4-.32-.44-.06-1.27,8.79-.06,18.36,0,27.24,0,11.36.55,22.68,1,34,.48,11.52.86,23.05,1.07,34.59s-.8,23.35.35,34.78c0,.23.4.32.44.06,1.42-10.11.59-20.81.44-31C112.42,316.18,112,304.65,111.57,293.12Z"/><path class="cls-24" d="M107.09,260v.34a2.46,2.46,0,0,0,4.92,0v-.1a2.46,2.46,0,1,0-4.92,0v.1a2.46,2.46,0,0,0,4.92,0V260a2.46,2.46,0,1,0-4.92,0Z"/><path class="cls-24" d="M111.5,282.59a2.64,2.64,0,0,0-2.7,2.71,2.46,2.46,0,0,0,4.92,0,1,1,0,0,1,0-.17l-.33,1.24,0,0-.88.88,0,0-1.24.33h.17a2.46,2.46,0,0,0,0-4.92Z"/><path class="cls-24" d="M112.23,306h-.09c-3.17,0-3.17,4.92,0,4.92h.09c3.17,0,3.17-4.92,0-4.92h-.09c-3.17,0-3.17,4.92,0,4.92h.09c3.17,0,3.17-4.92,0-4.92Z"/><path class="cls-24" d="M113,337.88c3.17,0,3.17-4.92,0-4.92s-3.17,4.92,0,4.92Z"/><path class="cls-6" d="M123.28,253.23c8.52-2.44,19.54-6,22.35-15.89H75.16C86.13,252.67,106.22,258.13,123.28,253.23Z"/><path class="cls-20" d="M135.18,258.36c10-3.23,21.53-9.68,24.82-22.8l-8,1.76c-3.3,13.13-16.26,17.81-26.27,21a47.4,47.4,0,0,1-10,2.07A48,48,0,0,0,135.18,258.36Z"/><path class="cls-21" d="M125.83,258.38c10-3.24,23-7.91,26.26-21h-6.46c-2.81,9.92-13.83,13.45-22.35,15.89-17.06,4.9-37.15-.56-48.12-15.89h-5.9C82.15,257.62,105.77,264.86,125.83,258.38Z"/><path class="cls-20" d="M152,237.79c-3.48,12.78-16.25,17.39-26.15,20.59A48.8,48.8,0,0,1,81,250.3c13.09,10.93,30.37,14.57,45.61,9.64,10-3.23,23-9,26.27-22.15Z"/><path class="cls-25" d="M17.22,179.16A7.74,7.74,0,0,0,13.09,183a22.07,22.07,0,0,0-2.25,15c.94,4,3.23,8.08,7.45,9.26l.76.18C12,199.46,8.91,187.26,17.22,179.16Z"/><path class="cls-17" d="M26.15,207.1c2.57-5.75,2-12.64-.86-18.53-2.7,2.64-3.07,5.47-3.44,9.15,0,.28-.46.49-.61.16-1.29-3,0-8,3.11-9.57-4.63,1-7.86,4.24-10.41,8.79a.44.44,0,0,1-.81-.22c-.48-4.07,5.92-9.83,11-10.46a24,24,0,0,0-6.83-7.29l-.06,0c-8.31,8.1-5.23,20.3,1.83,28.23A15.41,15.41,0,0,0,26.15,207.1Z"/><path class="cls-16" d="M28.81,181.35c-3.63-1.85-8-3.49-11.53-2.22a24,24,0,0,1,6.83,7.29,4.72,4.72,0,0,1,4.36,1.39.12.12,0,0,1-.08.2,17.1,17.1,0,0,0-2.8.09.19.19,0,0,1-.05.22l-.25.25c2.86,5.89,3.43,12.78.86,18.53,1.47-.37,3-.84,4.51-1.3h.07Q29.8,193.58,28.81,181.35Z"/><path class="cls-16" d="M110.19,221.32c5.19,1,12.47,2.07,15.59-6.24-6.24,3.12-16.63,4.16-18.71-3.12h-1C105,216.12,107.07,221.32,110.19,221.32Z"/><path class="cls-25" d="M112.26,163.11c-6.23-4.15-11.43,2.08-13.51,6.24-3.11,4.16-1,9.35,2.08,12.47C98.75,173.51,102.91,163.11,112.26,163.11Z"/><path class="cls-17" d="M37.63,98.76l.71.3A.63.63,0,0,0,37.63,98.76Z"/><path class="cls-17" d="M190.24,73.47c-2.77-2.82-4.86-6.47-7.3-10.13-8.31,10.39-24.95,6.23-31.18-3.12-3.12,13.51-18.71,16.63-30.14,18.7C106,81,88.36,76.85,80,62.3,67.57,74.77,52,64.38,37.43,66.45c-5.67,1-9.62,8.77-12.64,14.87,4,46.8,7,93.59,11.81,140.39,44.21,27.2,103.42,21.36,146.34-5.59C182.94,179.43,189.64,83.2,190.24,73.47ZM125.78,215.08c-3.12,8.31-10.4,7.28-15.59,6.24-3.12,0-5.2-5.2-4.16-9.36h1C109.15,219.24,119.54,218.2,125.78,215.08Z"/><path class="cls-16" d="M160.68,36.45C143.56,34,126.28,33.67,109,33.83c-15.69.14-31.72-.64-47.28,1.77C47.91,37.73,31.51,42,22.29,53.52q1.34,13.89,2.5,27.8c3-6.1,7-13.92,12.64-14.87C52,64.38,67.57,74.77,80,62.3,88.36,76.85,106,81,121.62,78.92c11.43-2.07,27-5.19,30.14-18.7,6.23,9.35,22.87,13.51,31.18,3.12,2.44,3.66,4.53,7.31,7.3,10.13q.94-15.18,1.63-30.37C182.44,38.66,170.71,37.91,160.68,36.45Z"/><path class="cls-25" d="M22.1,53.74C19,57.64,20,59.55,20.36,64.68q6.12,77.08,11.87,154.21,2.16,1.47,4.37,2.82c-5.82-56.06-8.93-112.13-14.31-168.19Z"/><path class="cls-16" d="M201,56.56c-.09-5.41-.4-8.34-5.7-11.62a33.17,33.17,0,0,0-3.43-1.84c-2.5,57.67-8.93,115.35-8.93,173C138.59,244,76.85,249.28,32.23,218.89c.07.89.14,1.79.2,2.68,7.43,3.17,14.24,7.64,21.81,10.65a140.2,140.2,0,0,0,63.75,10c26.91-2.07,53.78-9.41,75.05-26.52a.42.42,0,0,1,.14-.06c-.06-5.7,0-11.41.21-17.13a.58.58,0,0,1,0-1.12h0c.68-20,2.53-40.13,3.75-60.07C198.83,110.5,201.42,83.42,201,56.56Z"/><path class="cls-16" d="M197.73,184.83a2.74,2.74,0,0,1-1-1.2c-.5.44-1,.9-1.53,1.35a.2.2,0,0,1-.34-.19c.32-1.73,2.14-3.31,3.82-4.18a16.26,16.26,0,0,1,5.53-7.69c-.12-.4-.24-.81-.37-1.21-2.51-1.41-5.3-1.11-8.23-.49-.58,8.68-1.11,17.36-1.53,26.05,2-.26,4.19.19,6.23,0A21.39,21.39,0,0,1,197.73,184.83Z"/><path class="cls-25" d="M208.56,183.49c0-3.51-.4-8.08-3.19-10.64a8.37,8.37,0,0,0-1.56-1.14c.13.4.25.81.37,1.21.19-.15.38-.31.59-.45-.21.14-.4.3-.59.45a41.08,41.08,0,0,1,.12,22.66C208,192.58,208.58,188.16,208.56,183.49Z"/><path class="cls-17" d="M204.18,172.92a16.26,16.26,0,0,0-5.53,7.69,7.68,7.68,0,0,1,1-.45c1.92-.68,5.05-.77,5.74,1.66a.29.29,0,0,1-.36.35c-1-.31-1.82-1.06-2.89-1.08a5.81,5.81,0,0,0-2.87.67,9.44,9.44,0,0,0-1.15.74c-.08.35-.15.7-.21,1.06a2.24,2.24,0,0,0,1,.67,19.31,19.31,0,0,1,2.72.46.31.31,0,0,1,0,.58,4.68,4.68,0,0,1-3.94-.44,21.39,21.39,0,0,0,2.55,12.45,6.38,6.38,0,0,0,3.06-1q.51-.35,1-.72A41.08,41.08,0,0,0,204.18,172.92Z"/><path class="cls-17" d="M197.9,183.56c.06-.36.13-.71.21-1.06-.24.17-.48.35-.7.53C197.57,183.21,197.73,183.39,197.9,183.56Z"/><path class="cls-26" d="M210.14,182.11c0-8.53-6.24-15.36-14.53-11.37,1.12-16.59,2.4-33.17,3.44-49.73,1-16.89,2.1-33.79,2.7-50.7.27-7.33,2.65-18.07-2.92-23.87-7-7.23-19.12-8-28.4-9.43A339.1,339.1,0,0,0,125,32.76c-16.34-.29-32.87-.34-49.19.38a115.76,115.76,0,0,0-32.55,5.73c-9,3.09-18.79,8.32-23.84,16.75-1.87,3.12-.27,8.18,0,11.57,3,37.91,6.33,75.82,9.37,113.73-3-3.37-9.73-5.26-13.56-2.12-4.89,4-6,10.94-5.69,16.95.55,11.22,11.87,16.66,21.27,10.81.38,5,.77,10.06,1.13,15.09a.29.29,0,0,0,0,.43c5.15,4.38,12,7.12,18.16,9.82a148.48,148.48,0,0,0,22.49,7.72A143.56,143.56,0,0,0,118,243.49c25.83-1.69,56.35-8.77,75.48-27.38a.28.28,0,0,0-.13-.48c.15-5.69.38-11.38.65-17.07,5,.32,8.64.79,12.65-2.76C210.26,192.6,210.17,186.47,210.14,182.11ZM30.66,205.8c-4.22,1.24-7.95,2.65-12.37,1.41-4.22-1.18-6.51-5.29-7.45-9.26a22.07,22.07,0,0,1,2.25-15c3.58-6.57,10.44-4.32,15.72-1.62q1,12.22,1.92,24.45Zm162.77-8.43h0a.58.58,0,0,0,0,1.12c-.18,5.72-.27,11.43-.21,17.13a.42.42,0,0,0-.14.06c-21.27,17.11-48.14,24.45-75,26.52a140.2,140.2,0,0,1-63.75-10c-7.57-3-14.38-7.48-21.81-10.65C28.63,169.26,24.51,117,20.36,64.68c-.41-5.13-1.33-7,1.74-10.94,9.18-11.66,25.72-16,39.63-18.14C77.29,33.19,93.32,34,109,33.83c17.27-.16,34.55.13,51.67,2.62,11.28,1.65,24.74,2.38,34.62,8.49,5.3,3.28,5.61,6.21,5.7,11.62.42,26.86-2.17,53.94-3.82,80.74C196,157.24,194.11,177.33,193.43,197.37Zm9.91-1.07c-2.78,1.83-6.21.58-9.29,1,.42-8.69.95-17.37,1.53-26.05,3.55-.75,6.88-1,9.79,1.63s3.17,7.13,3.19,10.64C208.58,188.55,207.85,193.31,203.34,196.3Z"/><path class="cls-26" d="M199.64,180.16c-1.86.66-4.43,2.55-4.81,4.63a.2.2,0,0,0,.34.19c.54-.45,1-.91,1.53-1.35.74,1.77,3.26,2.24,5,1.64a.31.31,0,0,0,0-.58,19.31,19.31,0,0,0-2.72-.46,3.3,3.3,0,0,1-1.54-1.2,11,11,0,0,1,1.85-1.27,5.81,5.81,0,0,1,2.87-.67c1.07,0,1.91.77,2.89,1.08a.29.29,0,0,0,.36-.35C204.69,179.39,201.56,179.48,199.64,180.16Z"/><path class="cls-26" d="M13.13,196.88a.44.44,0,0,0,.81.22c2.55-4.55,5.78-7.8,10.41-8.79-3.15,1.54-4.4,6.53-3.11,9.57.15.33.58.12.61-.16.38-3.79.76-6.69,3.69-9.4a.19.19,0,0,0,.05-.22,17.1,17.1,0,0,1,2.8-.09.12.12,0,0,0,.08-.2C24.18,183,12.5,191.43,13.13,196.88Z"/><path class="cls-7" d="M161.39,132.55c0-.66-.14-.66-.16,0-.14,3.63-1.88,7.21-5.34,8.08a6.2,6.2,0,0,1-4.59-.95,8.62,8.62,0,0,1-1.78-1.58,5.56,5.56,0,0,1-.55-.87,7.07,7.07,0,0,0,.14-.72c0-.08,0-.48,0-.52-.77-.47-.51,2-.43,2.54a7,7,0,0,0,4.17,5.29c5.55,2.31,8.46-3.41,8.62-8.51A25.37,25.37,0,0,0,161.39,132.55Z"/><path class="cls-8" d="M157.72,127.89c-4.42-.92-8.44,2.29-8.46,7.27,0,5.55,4.94,7.06,9.2,5.15,3.65-1.64,4-6.38,2.23-9.71a5.14,5.14,0,0,0-4.33-2.91c-2.8,0-4.54,3.3-5.5,5.67-.06.13,0,.91.13.69,1.79-3,4.84-5.72,8.1-3.31s2.46,7-1.06,8.59-8.94.48-8.44-4.62a7.4,7.4,0,0,1,8.14-6.45c.07,0,.08-.35,0-.37Z"/><path class="cls-8" d="M155.3,129.3c-.91-2.29-3.23-.39-4,.94a10.77,10.77,0,0,0-1.68,5.6c.05,1.91.47,3.13,2.09,4.09a6.71,6.71,0,0,0,6.7,0c3.08-1.77,3.49-7.58,1-10-3.09-3-8.37.44-8.93,4.25-.05.34-.2,3.35.16,3.38,1.83.16,3.15-1.8,4.83-2.29,1.44-.43,4.2-.11,5,1.38,0-1.14,0-2.29,0-3.43a43.54,43.54,0,0,1-5.24,1.4,11.45,11.45,0,0,1-3.09.17,3.32,3.32,0,0,1-1.15-.34c-1-.46-.49-2-.58,1a7,7,0,0,0-.17-2.55c0-.07-.18,1.43-.18,1.68,0,2.88.86,3.91,3.62,3.77a27.34,27.34,0,0,0,6.86-1.64c.29-.09.14-3.11,0-3.43-.87-1.53-2.9-1.61-4.4-1.56-2.09.06-3.42,2.6-5.54,2.21,0,1.13.11,2.25.16,3.38.56-2.94,3.2-4.47,5.8-4.64a4.41,4.41,0,0,1,3.38,1.39c1.13,1.11.08.88-.56,1.63a6.12,6.12,0,0,1-2,1.43,6.7,6.7,0,0,1-4.17.31,7.37,7.37,0,0,1-1.48-.5,5.26,5.26,0,0,1-.9-.57c-.49-.88-.69-1-.62-.48a15.54,15.54,0,0,1,2.29-4.5c.49-.66,2.29-1.42,2.88-.66-.15-.19.1-1.06,0-1.37Z"/><path class="cls-8" d="M151.25,131.48c-.57-1.16-1.54,1-1.66,1.5a8.2,8.2,0,0,0-.14,2.21,4.4,4.4,0,0,0,.36,1.91c.11.17.17-.92.18-1a5.08,5.08,0,0,0-.16-1.74c0,.22.08.44.11.65a4.43,4.43,0,0,0-.06-.51c-.27-1.22-.32,1.75,0,.64a17.63,17.63,0,0,1,.8-1.84c.19-.42.8-1.3.54-1.82Z"/><path class="cls-8" d="M160.56,134.12c-.09-.51.05.33,0,.28.05.29.09.57.15.86s.13.55.19.83c.31,1.33.3-2.81,0-1.81a8.19,8.19,0,0,0-.16,3.11c0,.1.16.32.25.06a4.15,4.15,0,0,0,.2-1.26c0-.43,0-.86,0-1.29,0-.8,0-.49,0,.93,0-.26,0-.51,0-.76a6,6,0,0,0-.62-2.84c-.08-.12-.1.44-.1.47a7.47,7.47,0,0,0,.07,1.42Z"/><path class="cls-8" d="M160.59,134.74c-.1-1-.13-1.29-.1-.78,0,.18,0,.37.06.55q.09.56.21,1.08a8.43,8.43,0,0,0,.52,1.66c0-1.06,0-2.11,0-3.17a2.32,2.32,0,0,0-.62.33c-.1.06-.14.29-.16.41a9.45,9.45,0,0,0-.08,1.05,4.35,4.35,0,0,0,.08,1c.21,1,.31.57.86.42.15,0,.09-1.09.09-1.19,0-.41,0-.83,0-1.24a2.06,2.06,0,0,0-.09-.74,4.14,4.14,0,0,1-.35-.84c-.07-.2-.15-.61-.35-.69,0,0,0,1.92,0,2.13Z"/><path class="cls-2" d="M154.52,131c-.39-.56-.53-1.14-1.28-1a2.27,2.27,0,0,0-1.35.81,2.17,2.17,0,0,0-.29,1.28,6.13,6.13,0,0,0,.19,2.49c.24.55,1.13.63,1.59.54a1.85,1.85,0,0,0,1.46-1.13,6,6,0,0,0,.09-1.8c0-.43,0-.87-.08-1.3,0-.1,0-.47-.14-.54a1.42,1.42,0,0,0-1.15-.3c-.67.13-.55,1.46-.56,2,0,.25.06,2.23.51,2a1.91,1.91,0,0,1,1.29,0c0-1.21-.09-2.42-.13-3.64-.21,1-1.61,1.5-2.46,1.46a.51.51,0,0,1-.4-.22c-.45-.69-.34,3.31.12,2.17a1.71,1.71,0,0,1,.41-.51,4.54,4.54,0,0,1,1.11-.8c.55-.29.64-.74,1.07-1.16a.66.66,0,0,0,0-.37Z"/><path class="cls-2" d="M152.34,136.48a1.41,1.41,0,0,0,1.51.51l.27,0c.32,0,.25,0,.41-.37a1.57,1.57,0,0,0,0-.53,2.15,2.15,0,0,0,0-.51c-.09-.47-.46,0-.69.07-.48.24-1.13.22-1.48.64a.41.41,0,0,0,0,.22Z"/><path class="cls-7" d="M69.61,135.89a8.52,8.52,0,0,1-3.54,3.82,5.4,5.4,0,0,1-4.29.36c-.8-.23-3.55-1.89-3.34-3a3.53,3.53,0,0,0-.06-.74c-.51.63-.17,2-.06,2.76a6.08,6.08,0,0,0,4.17,4.54c4.95,1.62,8.24-4.51,8.31-8.88,0-.14-.19-1.57-.19-1.57C70.06,133.76,70,135.07,69.61,135.89Z"/><path class="cls-8" d="M66.35,127.89c-4.42-.92-8.44,2.29-8.46,7.27,0,5.55,4.94,7.06,9.2,5.15,3.64-1.64,4-6.38,2.23-9.71A5.14,5.14,0,0,0,65,127.69c-2.8,0-4.54,3.3-5.5,5.67-.06.13,0,.91.13.69,1.79-3,4.84-5.72,8.1-3.31s2.46,7-1.06,8.59-8.94.48-8.44-4.62a7.4,7.4,0,0,1,8.14-6.45c.06,0,.07-.35,0-.37Z"/><path class="cls-8" d="M63.93,129.3c-.91-2.29-3.23-.39-4,.94a10.68,10.68,0,0,0-1.68,5.6c0,1.91.47,3.13,2.08,4.09a6.73,6.73,0,0,0,6.71,0c3.08-1.77,3.49-7.58,1-10-3.09-3-8.37.44-8.93,4.25-.06.34-.2,3.35.16,3.38,1.83.16,3.15-1.8,4.83-2.29,1.44-.43,4.2-.11,5,1.38,0-1.14,0-2.29,0-3.43a42.89,42.89,0,0,1-5.23,1.4,11.47,11.47,0,0,1-3.09.17,3.32,3.32,0,0,1-1.15-.34c-1-.46-.49-2-.59,1a7,7,0,0,0-.16-2.55c0-.07-.18,1.43-.18,1.68,0,2.88.86,3.91,3.62,3.77a27.34,27.34,0,0,0,6.86-1.64c.29-.09.14-3.11,0-3.43-.87-1.53-2.9-1.61-4.4-1.56-2.09.06-3.43,2.6-5.54,2.21,0,1.13.11,2.25.16,3.38.55-2.94,3.2-4.47,5.79-4.64A4.39,4.39,0,0,1,68.51,134c1.14,1.11.09.88-.55,1.63a6.06,6.06,0,0,1-2,1.43,6.66,6.66,0,0,1-4.16.31,7,7,0,0,1-1.48-.5,5.26,5.26,0,0,1-.9-.57c-.49-.88-.69-1-.62-.48a15.3,15.3,0,0,1,2.29-4.5c.49-.66,2.29-1.42,2.88-.66-.15-.19.1-1.06,0-1.37Z"/><path class="cls-8" d="M59.88,131.48c-.57-1.16-1.54,1-1.66,1.5a8.2,8.2,0,0,0-.14,2.21,4.4,4.4,0,0,0,.36,1.91c.1.17.17-.92.17-1a4.84,4.84,0,0,0-.15-1.74c0,.22.08.44.11.65a3,3,0,0,0-.07-.51c-.26-1.22-.31,1.75,0,.64a17.63,17.63,0,0,1,.8-1.84c.19-.42.8-1.3.54-1.82Z"/><path class="cls-8" d="M69.19,134.12c-.09-.51,0,.33,0,.28,0,.29.09.57.15.86s.13.55.19.83c.31,1.33.29-2.81,0-1.81a5.85,5.85,0,0,0-.25,2,6.83,6.83,0,0,0,.09,1.11c0,.1.16.32.25.06a3.85,3.85,0,0,0,.19-1.26c0-.43,0-.86,0-1.29,0-.8,0-.49,0,.93,0-.26,0-.51,0-.76a6,6,0,0,0-.62-2.84c-.08-.12-.1.44-.1.47a7.47,7.47,0,0,0,.07,1.42Z"/><path class="cls-8" d="M69.22,134.74c-.1-1-.13-1.29-.1-.78a5.14,5.14,0,0,0,.06.55q.09.56.21,1.08a7.82,7.82,0,0,0,.52,1.66c0-1.06,0-2.11,0-3.17a2.32,2.32,0,0,0-.62.33c-.1.06-.14.29-.16.41a9.45,9.45,0,0,0-.08,1.05,5,5,0,0,0,.07,1c.22,1,.31.57.87.42.14,0,.09-1.09.09-1.19,0-.41,0-.83,0-1.24a2.63,2.63,0,0,0-.09-.74,4.14,4.14,0,0,1-.35-.84c-.07-.2-.15-.61-.35-.69,0,0,0,1.92,0,2.13Z"/><path class="cls-2" d="M63.14,131c-.38-.56-.53-1.14-1.27-1a1.86,1.86,0,0,0-1.65,2.09,6.31,6.31,0,0,0,.2,2.49c.24.55,1.13.63,1.59.54A1.85,1.85,0,0,0,63.47,134a6,6,0,0,0,.09-1.8c0-.43,0-.87-.08-1.3,0-.1,0-.47-.14-.54a1.42,1.42,0,0,0-1.15-.3c-.67.13-.56,1.46-.56,2,0,.25,0,2.23.51,2a1.91,1.91,0,0,1,1.29,0c0-1.21-.09-2.42-.13-3.64-.22,1-1.61,1.5-2.47,1.46a.51.51,0,0,1-.39-.22c-.45-.69-.34,3.31.12,2.17a1.71,1.71,0,0,1,.41-.51,4.54,4.54,0,0,1,1.11-.8c.55-.29.64-.74,1.07-1.16a.59.59,0,0,0,0-.37Z"/><path class="cls-2" d="M61,136.48a1.41,1.41,0,0,0,1.51.51l.26,0c.32,0,.26,0,.42-.37a1.88,1.88,0,0,0,0-.53,2.85,2.85,0,0,0,0-.51c-.1-.47-.46,0-.69.07-.48.24-1.13.22-1.48.64a.41.41,0,0,0,0,.22Z"/><path class="cls-7" d="M112.16,174.84a10.85,10.85,0,0,0-2-.07c-2.31-1.19-5.74-.69-8.22-.54-1.18.07-2.75,0-3.44,1.11l-1.31-.2s0,.29,0,.67a5.17,5.17,0,0,0-.54.11c-.27.07,0,3,.07,3,.72,0,1.45-.06,2.17-.08,3.8,1.89,7.95,2.68,11.81,4.42l0-.05c0-.19.07-.37.11-.56l.44.2a4.18,4.18,0,0,0,.07-.72c0-.17,0-.34,0-.5,0,.13,0,.23.06.31s0,0,0,0l0,.56c0-.07,0-.14,0-.21a1.06,1.06,0,0,1,0,.21c.08-.36.14-.72.22-1.09l.14.07a.31.31,0,0,0,0-.19c.1-.86.29-1.87.39-2.76a3.93,3.93,0,0,0,0-.68A9.24,9.24,0,0,0,112.16,174.84Z"/><path class="cls-10" d="M101.84,144.67c1.28,10.3-1.71,19.57-6,28.57a4.75,4.75,0,0,0,0,1.53,97.31,97.31,0,0,0,15.74,0,3.39,3.39,0,0,0,0-.84c-5.13-1.08-10.55-.43-15.75-.67,0,.5,0,1,.05,1.52,4.18-8.91,8.21-20.06,5.91-30.24,0,0,0,.12,0,.17Z"/><path class="cls-7" d="M137.23,186.64a9.07,9.07,0,0,0-1-.63,7.07,7.07,0,0,0-4.24-2,7.18,7.18,0,0,0,.05,2c.95,1,2.19,1.8,3.35,2.76a2.49,2.49,0,0,0,.82.83l.41.28a7.07,7.07,0,0,1,2.16,4,.39.39,0,0,0,.06.26,9.2,9.2,0,0,0,.06-5.82A4,4,0,0,0,137.23,186.64Z"/><path class="cls-10" d="M90,197.05c7.22,2.94,15,3,22.59,1.95,7.11-1,15.65-3.82,19.9-10.48.12-.18-.14-.81,0-.93-11,11-28.27,12.35-42.48,9.37,0,0,0,.09,0,.09Z"/><path class="cls-10" d="M129.47,184.44c4.63-.62,8.23,1.67,10.11,6.2-.08-.18,0-.48,0-.68-1.37-5.3-5.24-7.65-10.11-6,0,0,0,.44,0,.44Z"/><path class="cls-10" d="M167.15,158.27l-.21-.23c-.07.05-.13.11-.2.15s-.15.26-.25.37l-.13.15a1,1,0,0,0-.09.1c-.08.08,0,.47,0,.57s0,.26,0,.42v.14c.08-.07.15-.15.23-.23s.16-.09.25-.18c.29-.26.19-.57.39-.93C167.18,158.56,167.14,158.28,167.15,158.27Z"/><path class="cls-10" d="M167.54,169.45c-.12-.13-.15-.3-.26-.43h0c0-.12,0-.26-.05-.28s-.16-.12-.21,0a1.5,1.5,0,0,0-.1.56,7,7,0,0,0,0,.92c0,.14,0,.38.15.2a.75.75,0,0,0,0-.41l0,0h0c0,.06,0,.84.07.84a.27.27,0,0,0,.15-.05c.07,0,0-.39,0-.45s0-.23,0-.34l.12-.1A.94.94,0,0,0,167.54,169.45Z"/><path class="cls-10" d="M155.46,168.61v0c-.1-.11-.12,0-.17.12a3.76,3.76,0,0,0-.05,1.25c0,.34.08.49.41.37s.12-.41.24-.46h0s0-.18,0-.2a2.79,2.79,0,0,0,0-.58C155.86,168.92,155.74,168.37,155.46,168.61Z"/><path class="cls-4" d="M131.73,115.06c3.52-1.37,6.53-3.9,10.12-5.24a46.82,46.82,0,0,1,12.83-2.69,38.59,38.59,0,0,1,12.91,1.34c3.77,1,6.75,3.5,10.28,5,.32.13.23-2.13.09-2.38-8.8-16.28-38.48-12.28-46.31,3.14-.05.09-.07.92.08.86Z"/><path class="cls-10" d="M49.81,160.73v-.07c0-.23-.18-.26-.32-.43s-.32.43-.34.54a2.62,2.62,0,0,0,0,1.08c0,.19.1.11.11,0a.84.84,0,0,1,.14-.41v.05a1,1,0,0,0,0,.18c0,.1.15.24.16.33a.14.14,0,0,0,0,.06c.08,0,.17-.41.18-.46a1.5,1.5,0,0,0,0-.22C49.91,161.32,49.87,160.86,49.81,160.73Z"/><path class="cls-10" d="M52.25,173c0-.2,0-.36-.06-.36a.84.84,0,0,1-.3-.08s0,0,0,0-.07,0-.12.12c-.31-.09-.45.65-.5.83v.2c0,.17,0,.56,0,.59h0c0,.08,0,.13,0,.13l.26-.14c0,.09,0,.15.05.15a2,2,0,0,0,.76-.12,1.49,1.49,0,0,0,0-.7l.15.06s0-.38,0-.42Z"/><path class="cls-10" d="M63,174.62l0,0C63,174.71,63,174.72,63,174.62Z"/><path class="cls-10" d="M63.56,174.3s0,0,0-.08a1.52,1.52,0,0,0,0-.37l0-.13c0-.25-.07-.5-.11-.75a.19.19,0,0,0,0-.08.88.88,0,0,0-.22.28l-.05,0,0-.11a1.38,1.38,0,0,0-.14-.27c0-.08-.19.21-.21.25s0,.08,0,.13a1.72,1.72,0,0,0-.54.68c0,.08,0,.58,0,.62a.75.75,0,0,0,.52,0,.25.25,0,0,0,0,.08c0,.14,0,.46.22.48a1.59,1.59,0,0,0,0-.34v0l0,0h0l0,0v0l.25-.15s.06-.13.09-.22a.23.23,0,0,1,.21.16.24.24,0,0,1,0-.12Z"/><path class="cls-27" d="M28,36.63C59.73,11.51,100.45,5.64,140.18.34l-.32,0c-3.33-.3-8.51-.95-11.5,1.47C117.45,2,106.64,4.11,95.93,6.25c-12.05,2.4-24,4.55-35.77,8.38C48.9,18.3,37.32,23,27.25,29.6,18.44,35.38,9.56,43.36,6.09,54.12,1.26,62.59.32,73.17.22,82.87a114.83,114.83,0,0,0,4.66,32.47c.61,2.13,1.27,4.3,2,6.47C1,91.32,3.36,55.4,28,36.63Z"/><path class="cls-28" d="M226.84,45.38a5.78,5.78,0,0,0-.31-.72c-1.29-7.4-6-16.06-13.22-17.71-4.82-1.11-9.33,1.88-12.82,6a22.79,22.79,0,0,0-1.14-9.41c-2.11-5.47-6-9.6-10.58-12.85a5,5,0,0,0-2.77-1c-9.66-5.6-21.64-6.91-32.25-8.06-4.5-.48-9.05-.91-13.57-1.31C100.45,5.64,59.73,11.51,28,36.63,3.36,55.4,1,91.32,6.85,121.81c2.48,7.6,5.63,15.23,10.08,21.46a9.29,9.29,0,0,0,1.46,1.59,29,29,0,0,0,1.76,3c.69,1.19,1.5,2.29,2.18,3.49a8.38,8.38,0,0,0,2,2.76c.17.14.19-.25.21-.35.28-1.49.55-3,.9-4.46.26-.78.49-1.57.68-2.32,0-.11.05-.24.08-.37a32.09,32.09,0,0,0,1.19-3.79.71.71,0,0,0,0-.21,5.57,5.57,0,0,0,1.68-2.12c1-2,2-4.06,3-6a46.85,46.85,0,0,1,9-7.61.52.52,0,0,1,0,.11c-1,1.09-1.61,3.3-2.12,4.54a31.44,31.44,0,0,0-2.15,8.14,61.44,61.44,0,0,0-.52,13.3,13.49,13.49,0,0,0,.35,5.53c.22.7.31-.61.28-1.12a.39.39,0,0,0,0-.13c.23-1.05.62-2.05.75-3.09.12-.32.23-.62.35-.88s.15-.38.23-.56a18.48,18.48,0,0,0,.69-1.83,3.46,3.46,0,0,0,.08.58A41.81,41.81,0,0,1,41.69,146c1.06-1.61,2.1-3.23,3.23-4.79a34.36,34.36,0,0,1,3.22-3.58s0-.06,0-.07l-.67.5.48-.52c.59-.48,1.19-.95,1.81-1.38,2.82-2,5.94-3.34,8.84-5.14C69.72,128.24,81,126,91.78,122c10.25-3.87,21.63-9.72,30.16-18.1q2-1.31,3.89-2.68l-.09.17a11.28,11.28,0,0,0-1,1.52,17.27,17.27,0,0,0-1.76,4.34v.09c-.19.22-.38.44-.56.69a1,1,0,0,0,0,.31c2.46-1.24,4.77-2.8,7.24-4a59.24,59.24,0,0,0,7.8-4.25,6.09,6.09,0,0,0,5-1.63,35.71,35.71,0,0,1,6-3.72,39.48,39.48,0,0,0,6.69-5.17c4.57-4.1,9.48-7.71,14.12-11.73a171.41,171.41,0,0,0,18.49-19.3c-.25,1.27-.44,2.52-.56,3.75-.59,5.91,1.17,12.06,3.12,17.52s4,12.33,8.31,16.25a22.6,22.6,0,0,0,.17,3h0c0,.45,0,.9-.07,1.34a5.05,5.05,0,0,0-.05,1.55c0,1.16,0,2.31,0,3.47-.05.08,0,1.78,0,1.87,0,1.22.08,2.45.13,3.67,0,.46,0,.91,0,1.37a4.15,4.15,0,0,0,0,1.61c-.19,1.43-.12,2.91-.2,4.33a46.14,46.14,0,0,0,0,6.11v0a23.23,23.23,0,0,0,.13,3.11.86.86,0,0,0,0,.13c0,.65.06,1.27.31,1.23l1.2-.23c.26,0,.25-.85.26-1,.19-7.09,3.12-15,6.39-21.09a.3.3,0,0,0,0-.1,7.32,7.32,0,0,0,2.68-3.58c-.85,2.25.91-1.51,1.27-2.16,1-1.81,2.05-3.6,3.09-5.39,2.15-3.7,4.35-7.37,6.47-11.09a58.45,58.45,0,0,0,6.2-17.28C227.86,60.34,229.14,51.72,226.84,45.38Zm-28.13,80.55,0,.14S198.72,126.05,198.71,125.93Z"/><path class="cls-29" d="M196.45,45.3c.55-.67,1.11-1.34,1.65-2,.16-.21,0-1.16-.1-1C185.33,55.51,165.37,80.86,143.93,85c-1.83.36,3-12.87,3.09-14.27,0,0,0-.06,0,0,0,.21-.08.43-.11.66,0,0,0,0,0,0h-.05c-.05,0-.06.07-.07.11-.29.83-.7,1.57-1,2.37-.66,1.19-1.36,2.36-2,3.55h0c-16,19.51-39.48,28-61.82,35.7C70.63,117,57.46,119.31,48,127.34c-8.29,7-11.37,19.15-11.56,30,0,.64.54,1.54.79.5,3.07-12.53,10.17-21.21,21.6-25.35C69.34,128.68,80.48,127,91,123c9.49-3.69,18.39-9.31,26.58-15.59,2.77-2.12,5.55-4.29,8.22-6.61a3.86,3.86,0,0,0-.06.49c-.23.49-.43,1-.64,1.5a15.88,15.88,0,0,0-.94,2.34,8.28,8.28,0,0,1-.84,1c-.36.36-.37,2.44.27,2.11,3.41-1.75,6.15-4.28,9.7-5.84a68.68,68.68,0,0,0,10-5.21c3.22-2.12,6.19-4.7,9.23-7.1,3.42-2.69,7.13-4.86,10.63-7.42a121.19,121.19,0,0,0,18.05-16.85c5.47-6.07,11.09-12.37,15.19-19.61A1.82,1.82,0,0,0,196.45,45.3Z"/><path class="cls-29" d="M40.67,127.12h0c.15,0,.09-.59,0-.67l0,0c0-.06-.06-.11-.1-.11h0c-2.84-2.37-9.84,2.75-12.09,4.59-2.59,2.12-4.45,4.9-6.71,7.36-2.64,2.86-5.59-.89-7.41-3.57l0-.06c-.1-.35-.22-.47-.32-.46l-.43-.64c-.45-.67-.64,1.49-.36,1.94s.4.65.61,1a25.79,25.79,0,0,0,3.38,7.3c.81,1.37,1.63,2.71,2.48,4,0,.14.08.25.17.26.23.37.45.73.69,1.09a6.53,6.53,0,0,0,.1.72c0,.14.13.48.33.36a1.19,1.19,0,0,0,.2-.19c.53.69,1.11,1.38,1.63,2.09a1.27,1.27,0,0,0,.38.9.21.21,0,0,0,.24,0,7.4,7.4,0,0,1,.6,1.15c.45,1.1.74-.8.71-1.15-.17-2.27,1.14-4.66,1.87-6.73a75.68,75.68,0,0,1,3.08-7.72c2.49-5.17,6.56-8.3,11-11.34C40.64,127.21,40.66,127.17,40.67,127.12Z"/><path class="cls-29" d="M226.52,45a31.17,31.17,0,0,0-2.14-7.57c-1.61-3.61-7-13.41-11.83-11.76-.31.11-.48.5-.57,1a7.26,7.26,0,0,0-1.17-.11,4.26,4.26,0,0,0-3.48.74c-.09.07-.1.47,0,.49,5.74.86,9,4.41,10.72,9.14a51.24,51.24,0,0,1,.13,15.67c-1.13,8.15-4.55,16-7.83,23.33-3.1,7-6.07,13.91-9,20.92-1.23-10-9.17-16.94-12.13-26.37a42.79,42.79,0,0,1-.88-12.28c0-.1-.08-.33-.13-.12l0,.13c0-.05,0-.11,0-.16s-.08-.36-.13-.14A26.35,26.35,0,0,0,188,69.77a3.21,3.21,0,0,0,0,.67c.56,5.51,2.81,10.17,5.28,14.77.67,3.18,2.65,5.93,4.07,8.84,2.31,4.73.63,10.48,1.1,15.73,0,.55-.08,1.09-.11,1.62-.25,4.91.76,9.81.14,14.7a2.91,2.91,0,0,0,.31,1.82c.1.34.28.68.57.68h.6c.34,0,.51-.56.56-.83a93.16,93.16,0,0,1,4.91-17.9c2.36-6,5.81-11.42,9-16.89q1.78-3,3.4-6.14c.12,0,.25,0,.39-.25a65.47,65.47,0,0,0,8.52-21.54C227.89,59.08,228.45,51.14,226.52,45Z"/><path class="cls-4" d="M198.53,42.4c-5.32,7.13-10.18,14.49-16,21.19a148.36,148.36,0,0,1-17.25,16.77c-13.45,11.2-28.63,19.39-43.44,28.25-.09,0,.07.6,0,.63,30-14.24,59.39-35.83,76.66-66.58,0-.06,0-.21,0-.26Z"/><path class="cls-4" d="M147.1,70.57c-5.2,13.16-15.08,23.85-25.3,32.68S100,119.67,87.48,123.56c-10.28,3.19-21.14,4.16-31.1,8.52-10.56,4.61-17,14.08-19.62,25.8,0,.19.06.55,0,.67,3.34-11.94,9.52-20.73,20.36-25.5,9.95-4.37,21-5.32,31.24-8.54,12.22-3.84,23.57-11.88,33.44-20.34,10.41-8.94,20.07-20,25.28-33.35,0-.07,0-.19,0-.25Z"/><path class="cls-4" d="M41.37,126.25c-6.5,8-5.57,21.11-4.91,31,0,.39.1.16.09-.1-.17-10.32-1.06-21.66,4.85-30.51.06-.08,0-.4,0-.4Z"/><path class="cls-4" d="M41.38,126.19c-5.65.72-10.09,8.52-12.52,13.36a39.27,39.27,0,0,0-4.44,18c0,.17.1.61.12.2a45,45,0,0,1,4.93-17.47c3-5.93,7.05-9.62,11.92-13.6a1,1,0,0,0,0-.51Z"/><path class="cls-4" d="M126.65,98.72c-1.86,3.9-3.93,7.73-5.63,11.72,0,.11,0,.46,0,.49a61.82,61.82,0,0,0,5.64-11.73c0-.12-.05-.43,0-.48Z"/><path class="cls-4" d="M187.87,57.47c-1.79,5.46-.45,11.94.9,17.31A63.1,63.1,0,0,0,198,95.65a1.24,1.24,0,0,0,.05-.62C192.36,84.16,185.55,70.84,188,58c0-.09,0-.6-.08-.48Z"/><path class="cls-4" d="M199.81,37.53c1.86-11.35,13.3-13.85,20.41-5.92,7.83,8.74,8.57,24.28,6.07,35.26-5,21.95-23.79,37-25.86,60.15,0,.11,0,1,.09.6C203.93,101.93,227.1,85,227.8,58.33c.23-9.06-1.23-18.83-6.06-26.43-3-4.67-7.68-7.17-12.93-6.58-5.59.61-8.4,6.06-9,11.5,0,.21.06.57,0,.71Z"/><path class="cls-4" d="M198.52,41.83c3.08-8.39,3.1-17.84-2.41-25.07-7-9.19-19.59-12.39-29.93-14.35C138.75-2.8,111,2.22,83.94,7.79,59.21,12.89,30.44,20,13,41.21c-17,20.63-15,52.25-7.18,76.67,4.19,13,10.59,26.79,18.78,37.42a1.65,1.65,0,0,0,0-.83C14.67,139,6.41,121.7,2.71,103.18-.45,87.32-.93,70.38,5.5,55.37,16.17,30.46,43,20,65.92,13.6,81.55,9.24,97.54,6.48,113.5,4a176.29,176.29,0,0,1,37.07-2.08c12.22.64,25.05,2.49,36.11,8.44a28.42,28.42,0,0,1,11.08,10.07c3.86,6.37,3,14,.73,20.77-.06.19.07.56,0,.68Z"/><path class="cls-4" d="M135.78,70.88C123.32,86.8,107,97.56,90,107.1c0,0,0,.17,0,.17,17.25-9,33.46-20.32,45.74-36.34,0,0,0,0,0-.05Z"/><path class="cls-4" d="M124.76,65.1c-6.1,6.83-11.53,14.31-17.68,21.09a111.74,111.74,0,0,1-21,17.85c-10.9,7.24-23.34,11.57-33.61,19.92,0,0,0,.17,0,.19C63,116.21,75.2,111.63,86.13,104.53a113.86,113.86,0,0,0,20-16.79c6.71-7,12.31-15.15,18.66-22.52,0,0,0-.11,0-.12Z"/><g class="cls-30"><path class="cls-31" d="M187,58.76c-.94,0-1.72,1.74-2.31,2.51-1.21,1.58-2.55,3.08-3.87,4.55-2.4,2.7-5.07,5.06-7.7,7.49q-9.45,8.67-19.5,16.48a156.56,156.56,0,0,1-20.53,13.41c-3.37,1.87-6.77,3.66-10.15,5.48a5,5,0,0,1,1.71-1.63,5.91,5.91,0,0,0,.26-2.4l.45-.62c.38-.57-.41-3.73-.09-3.91-.19.1-.36.22-.54.33-.07-.67-.16-1.13-.26-1.16l-.08,0s0,0,0,0c-1.12.42-2.23,2.52-3,3.47-2,1.55-4,3.21-6,4.66a101.46,101.46,0,0,1-11,6.5c-8.27,4.32-16.9,8.39-25.83,10.84-8.55,2.35-17.3,2.09-24.78,7.86a30.14,30.14,0,0,0-11.55,18.49,18.23,18.23,0,0,0-.12,4.43c0,.25.53,3.2.67,2.72,2.57-8.78,8.79-15.67,16.17-20.07a36,36,0,0,1,10.31-3.89c3.25-.59,6.52-1.06,9.65-1.84,2.16-.4,4.3-.83,6.36-1.38a96.83,96.83,0,0,0,21.63-8.63,58.14,58.14,0,0,0,6.16-4c0,.36.11.65.24.71,3.29,1.55,7.68-2.16,10.6-3.75,3.55-1.93,7.1-3.83,10.63-5.81a157.61,157.61,0,0,0,20.46-13.74A223.07,223.07,0,0,0,174.3,79.16c4.89-4.83,11.11-10.37,12.79-17.59A9.45,9.45,0,0,0,187,58.76Z"/><path class="cls-31" d="M29.83,137.88A44.65,44.65,0,0,0,25,152.79a18.23,18.23,0,0,0,0,4.55c0,.3.5,2.84.84,1.33a59.86,59.86,0,0,1,4.94-14.62c2.72-5.29,7.44-9.29,9.52-14.86.08-.23.14-1.49-.06-1.64C36.94,125.06,31.26,135.24,29.83,137.88Z"/></g></g></g></g></svg>