<svg xmlns="http://www.w3.org/2000/svg" viewBox="0 0 203.72 464.92"><defs><style>.cls-1{fill:#89564d;}.cls-2{fill:#c1796d;}.cls-3{fill:#250600;}.cls-4{fill:#fff;}.cls-5{fill:#bf462f;}.cls-6{fill:#e9cea9;}.cls-7{fill:#b59976;}.cls-8{fill:#5c5142;}.cls-9{fill:#cd897a;}.cls-10{fill:#8a3129;}.cls-11{fill:#cb4d44;}.cls-12{fill:#661d15;}.cls-13{fill:#d2b9b1;}.cls-14{fill:#958581;}.cls-15{fill:#f7e6cb;}.cls-16{fill:#459fab;}.cls-17{fill:#231f20;}.cls-18{fill:none;}.cls-19{fill:#412700;}.cls-20{fill:#b27d38;}.cls-21{fill:#694715;}.cls-22{fill:#331a00;}</style></defs><title>girl</title><g id="Layer_2" data-name="Layer 2"><g id="Layer_1-2" data-name="Layer 1"><path class="cls-1" d="M125,446.93c-.77-.57-2.69-1.8-2.77-3a8.14,8.14,0,0,0-1.57,4.43,22,22,0,0,0,.48,4.05c.41.72,2.69.9,3.26,1l.89.13a8.16,8.16,0,0,1,1.45-5.39C126.13,447.76,125.54,447.36,125,446.93Z"/><path class="cls-2" d="M153.38,459.92a4.37,4.37,0,0,0-2.16-3.8A19,19,0,0,0,149,455a13.21,13.21,0,0,1-2.2-1.21,3.51,3.51,0,0,0-.48,2c0,.08-.11.08-.13,0a2.51,2.51,0,0,1,.33-2.15l-.31.05c-.61.15-1.18.36-1.77.56,0,.26,0,.53-.08.8a3,3,0,0,1-.31,1.14.17.17,0,0,1,0,.1.38.38,0,0,1-.28.2.84.84,0,0,1-.26.15c-.07,0-.13-.05-.09-.1h0c-2.29-.07-9.75-4.28-10.51-4.7-2.09-1.14-4.18-2.32-6.16-3.65a8.16,8.16,0,0,0-1.45,5.39c1.39.2,2.8.38,4.2.59a30.27,30.27,0,0,1,5.17,1.09,3.65,3.65,0,0,1,2.3,1.47h0a37.48,37.48,0,0,0,3.59,2.48,21.76,21.76,0,0,0,4.4,1.63c2.75.69,5.87.82,8.39-.68a.65.65,0,0,1,.08-.17A.05.05,0,0,1,153.38,459.92Z"/><path class="cls-3" d="M126.18,447.35a79.8,79.8,0,0,0,6.9,4.1c2.28,1.22,4.59,2.39,7,3.41.68.29,2.55,1.36,3.56,1.31a4.7,4.7,0,0,0,.42-1.81h0c-.62.19-1.71.47-2-.41a3.39,3.39,0,0,1-.09-.89c-.49-.33-1-.68-1.46-1-2-1.28-4.06-2.57-6.07-3.9-3.61-2.4-7.42-5.69-12.06-4.45h0C122.53,445.24,125.1,446.62,126.18,447.35Z"/><path class="cls-4" d="M145.51,461.42a22.43,22.43,0,0,1-5.21-1.84c-1.19-.62-2.9-1.45-3.5-2.74h0c-2.45-2.17-6.86-2.22-9.93-2.67-.76-.11-4.46-.28-5.66-1.24,0,0,0,.08,0,.12.57,2.59,2.89,3.36,5.35,3.82s5.14.54,7.64,1.14a5.27,5.27,0,0,1,2.28.94,12.79,12.79,0,0,0,4,2.78,24.6,24.6,0,0,0,6.39,1.57c2.09.2,4.08.31,5.8-1.1a0,0,0,0,1,0,0,4.44,4.44,0,0,1,.4-1.25c.08-.19.15-.38.22-.57C151.53,462.15,147.69,461.92,145.51,461.42Z"/><path class="cls-2" d="M146.21,453.36c-.48-.27-1-.6-1.43-.89a3.85,3.85,0,0,0-.34,1.44A14.9,14.9,0,0,1,146.21,453.36Z"/><path class="cls-2" d="M145.44,451.66a2.49,2.49,0,0,0-.58.65c.44.28.86.61,1.28.92A2.35,2.35,0,0,1,145.44,451.66Z"/><path d="M151.13,455.62c-1.19-.72-2.82-1.17-4-2a5.85,5.85,0,0,1,1.51.51c.05,0,.09-.05.07-.09a1.57,1.57,0,0,0-1.62-.79,7.33,7.33,0,0,0,.83-1.83c.12-.53.17-2.39-.58-2.6-1.48-.43-1.51,2.52-1.22,3.87a3.42,3.42,0,0,1-.57-1.09,0,0,0,0,0,0-.06,1.31,1.31,0,0,0-.88.61,3.79,3.79,0,0,0-1.43-.52,1,1,0,0,0-1.13.89c-2.72-1.74-5.48-3.43-8.19-5.21-3.5-2.29-7.22-5.19-11.64-3.71a.09.09,0,0,0,0,.17c-2.29,2.17-2.31,6.29-1.26,9.12-.81,5.13,10,4.88,12.93,5.47a5,5,0,0,1,3.07,1.7c1.29,1.38,3.34,2.07,5.09,2.61a26.45,26.45,0,0,0,6.31,1.06c1.63.09,3.41-.15,4.46-1.53,0,0,0,0,0-.06a4.69,4.69,0,0,0,.43-1,6.05,6.05,0,0,0,.35-1.17s0,0,0,0C154.3,458.09,152.57,456.49,151.13,455.62Zm-4.94-4.81a4.24,4.24,0,0,1,.35-1.41c.66-.23,1-.1,1,.38a4.27,4.27,0,0,1,.07,1.13,5.45,5.45,0,0,1-1,2.37h0a3.11,3.11,0,0,1-.41-.4A9,9,0,0,1,146.19,450.81Zm-.75.85a2.35,2.35,0,0,0,.7,1.57c-.42-.31-.84-.64-1.28-.92A2.49,2.49,0,0,1,145.44,451.66Zm-.66.81c.48.29.95.62,1.43.89a14.9,14.9,0,0,0-1.77.55A3.85,3.85,0,0,1,144.78,452.47Zm-1.25-.53a4.25,4.25,0,0,1,.95.37,3.54,3.54,0,0,0-.33,1,4.71,4.71,0,0,0-.08.5c-.6-.4-1.21-.79-1.82-1.18A1.13,1.13,0,0,1,143.53,451.94Zm.29,2.19c-.48.16-1.15.36-1.48-.13a1.21,1.21,0,0,1-.21-.8A9.69,9.69,0,0,0,143.82,454.13Zm-9.42-5.94c2,1.33,4,2.62,6.07,3.9.48.3,1,.65,1.46,1a3.39,3.39,0,0,0,.09.89c.25.88,1.34.6,2,.41h0a4.7,4.7,0,0,1-.42,1.81c-1,.05-2.88-1-3.56-1.31-2.37-1-4.68-2.19-7-3.41a79.8,79.8,0,0,1-6.9-4.1c-1.08-.73-3.65-2.11-3.83-3.61h0C127,442.5,130.79,445.79,134.4,448.19ZM153,460.91a4.44,4.44,0,0,0-.4,1.25,0,0,0,0,0,0,0c-1.72,1.41-3.71,1.3-5.8,1.1a24.6,24.6,0,0,1-6.39-1.57,12.79,12.79,0,0,1-4-2.78,5.27,5.27,0,0,0-2.28-.94c-2.5-.6-5.11-.67-7.64-1.14s-4.78-1.23-5.35-3.82c0,0,0-.08,0-.12,1.2,1,4.9,1.13,5.66,1.24,3.07.45,7.48.5,9.93,2.67h0c.6,1.29,2.31,2.12,3.5,2.74a22.43,22.43,0,0,0,5.21,1.84c2.18.5,6,.73,7.72-1.08C153.16,460.53,153.09,460.72,153,460.91Zm.31-.78c-2.52,1.5-5.64,1.37-8.39.68a21.76,21.76,0,0,1-4.4-1.63,37.48,37.48,0,0,1-3.59-2.48h0a3.65,3.65,0,0,0-2.3-1.47,30.27,30.27,0,0,0-5.17-1.09c-1.69-.25-3.4-.45-5.09-.72-.57-.1-2.85-.28-3.26-1a22,22,0,0,1-.48-4.05,8.14,8.14,0,0,1,1.57-4.43c.08,1.19,2,2.42,2.77,3a64,64,0,0,0,7.9,4.88c.76.42,8.22,4.63,10.51,4.7h0c0,.05,0,.13.09.1a.84.84,0,0,0,.26-.15.38.38,0,0,0,.28-.2.17.17,0,0,0,0-.1,3,3,0,0,0,.31-1.14c0-.27.06-.54.08-.8.59-.2,1.16-.41,1.77-.56l.31-.05a2.51,2.51,0,0,0-.33,2.15c0,.06.14.06.13,0a3.51,3.51,0,0,1,.48-2A13.21,13.21,0,0,0,149,455a19,19,0,0,1,2.25,1.14,4.37,4.37,0,0,1,2.16,3.8.05.05,0,0,0,0,0A.65.65,0,0,0,153.32,460.13Z"/><path class="cls-5" d="M147.07,453.41a6,6,0,0,0,1-2.41c.07-.78.06-1.78-.64-2.25s-1.28.47-1.43.9a4.1,4.1,0,0,0,.12,3.19,5.09,5.09,0,0,0-2.85-1.19,1.94,1.94,0,0,0-1.68,1.75c0,.94.55,1.33,1.47,1.27,1.2-.09,2.3-.81,3.43-1a2.66,2.66,0,0,0-.3,2.25c0,.09.2.09.19,0a3.69,3.69,0,0,1,.59-2.28,2.59,2.59,0,0,1,1.62.46h0A1.86,1.86,0,0,0,147.07,453.41Zm-.85-3.38c.19-.75,1.11-1.11,1.36-.21a3.43,3.43,0,0,1,0,1.56,6,6,0,0,1-.85,1.87l-.35-.23v0A5.1,5.1,0,0,1,146.22,450Zm-3.16,4.25c-1.51.12-1.06-2.34.56-2.31.86,0,1.92.91,2.69,1.5a6.4,6.4,0,0,0-1.37.39A6.82,6.82,0,0,1,143.06,454.28Z"/><path class="cls-6" d="M140.72,452.57c-1-.4-1.58-1.42-2.23-2.27a19.32,19.32,0,0,1-3.31-6.34c-2.09-7.24-1.46-14.84,0-22.23-13.93,1.63-7.09,16-6.1,27.4,4.14,2.78,8.65,5.24,13.24,6.27C144.58,455.92,143.37,453.64,140.72,452.57Z"/><path class="cls-7" d="M135.15,421.73c.59-3.07,1.32-6.1,2-9.06a.94.94,0,0,1,.34-.54l-.21.05-2.29.41-6.77,1.22L122,414.94c-2,.37-1.63.13-1.44,2.22.56,6.11,2.13,12,2.94,18.12.35,2.67,1.39,7.05-.45,9.47,1.87,1.45,3.88,3,6,4.38C128.06,437.73,121.22,423.36,135.15,421.73Z"/><path class="cls-8" d="M142.65,453.23c-3.93-1.9-5-5.28-6.44-9.55A33.38,33.38,0,0,1,135,432.17c.22-7,2-13.8,3.61-20.54a.57.57,0,0,0-.68-.68c-6,1.11-12,2.26-18,3.38a.49.49,0,0,0-.37.47c0,4.7,1.19,9.39,2.1,14,.78,4,3.75,12.27,1,15.91a.17.17,0,0,0,.1.25,70.11,70.11,0,0,0,18.7,10.84C143.49,456.52,145.85,454.78,142.65,453.23Zm-.36,2.17c-6.93-1.56-13.71-6.36-19.23-10.65,1.84-2.42.8-6.8.45-9.47-.81-6.07-2.38-12-2.94-18.12-.19-2.09-.6-1.85,1.44-2.22l6.26-1.13,6.77-1.22,2.29-.41.21-.05a.94.94,0,0,0-.34.54c-2.5,10.08-5,21-2,31.29a19.32,19.32,0,0,0,3.31,6.34c.65.85,1.24,1.87,2.23,2.27C143.37,453.64,144.58,455.92,142.29,455.4Z"/><path class="cls-2" d="M82.19,453c-.76.42-8.22,4.63-10.51,4.71h0c0,.05,0,.14-.08.11a.79.79,0,0,1-.27-.15.39.39,0,0,1-.28-.21s0-.06,0-.1a2.88,2.88,0,0,1-.31-1.13c0-.27-.06-.54-.08-.8a18.18,18.18,0,0,0-1.77-.56l-.31-.06a2.52,2.52,0,0,1,.33,2.15c0,.07-.14.07-.13,0a3.5,3.5,0,0,0-.48-2,12.83,12.83,0,0,1-2.2,1.21,19,19,0,0,0-2.25,1.14,4.37,4.37,0,0,0-2.16,3.8s0,0,0,0,0,.11.07.17c2.52,1.5,5.64,1.37,8.39.68a22.05,22.05,0,0,0,4.39-1.63,35.12,35.12,0,0,0,3.59-2.48h0c.41-.85,1.47-1.19,2.3-1.48a30.25,30.25,0,0,1,5.17-1.08l3.65-.52a33.58,33.58,0,0,1-1-5.36C86.27,450.74,84.23,451.89,82.19,453Z"/><path class="cls-1" d="M92.86,445.13c-.08,1.18-2,2.42-2.77,3-.61.46-1.24.9-1.88,1.33a33.58,33.58,0,0,0,1,5.36l1.44-.2c.57-.1,2.85-.28,3.26-1a22,22,0,0,0,.48-4.05A8.14,8.14,0,0,0,92.86,445.13Z"/><path class="cls-3" d="M88.89,448.53a78.89,78.89,0,0,1-6.9,4.11c-2.28,1.22-4.59,2.39-7,3.41-.68.29-2.55,1.36-3.56,1.3a4.84,4.84,0,0,1-.42-1.8h0c.62.19,1.71.47,2-.41a3,3,0,0,0,.08-.89c.51-.33,1-.68,1.47-1,2-1.29,4.06-2.57,6.07-3.9,3.61-2.4,7.42-5.7,12.06-4.46h0C92.54,446.43,90,447.8,88.89,448.53Z"/><path class="cls-4" d="M69.56,462.61a22.43,22.43,0,0,0,5.21-1.84c1.19-.62,2.9-1.45,3.5-2.73v0c2.46-2.17,6.87-2.22,9.94-2.67.76-.11,4.46-.28,5.66-1.24,0,0,0,.08,0,.11-.57,2.59-2.89,3.37-5.35,3.83s-5.13.54-7.64,1.14a5.27,5.27,0,0,0-2.28.94,12.79,12.79,0,0,1-4,2.78,24.19,24.19,0,0,1-6.39,1.56c-2.09.21-4.08.32-5.8-1.09a0,0,0,0,0,0,0,4.34,4.34,0,0,0-.4-1.25c-.08-.19-.14-.38-.22-.57C63.54,463.34,67.38,463.11,69.56,462.61Z"/><path class="cls-2" d="M68.86,454.55c.48-.28,1-.6,1.43-.89a3.8,3.8,0,0,1,.34,1.44A11.94,11.94,0,0,0,68.86,454.55Z"/><path class="cls-2" d="M69.63,452.85a2.28,2.28,0,0,1,.57.65c-.44.28-.85.61-1.27.91A2.32,2.32,0,0,0,69.63,452.85Z"/><path d="M61.48,461.14s0,0,0,0a5.76,5.76,0,0,0,.35,1.16,4.55,4.55,0,0,0,.43,1,.07.07,0,0,0,0,.06c1.06,1.38,2.84,1.62,4.47,1.53a27,27,0,0,0,6.31-1.06c1.75-.54,3.8-1.23,5.08-2.61a5.11,5.11,0,0,1,3.08-1.7c2.89-.59,13.73-.34,12.93-5.47,1-2.83,1-6.95-1.26-9.12a.09.09,0,0,0,0-.17c-4.42-1.48-8.14,1.42-11.64,3.71-2.71,1.78-5.47,3.47-8.19,5.21a1,1,0,0,0-1.13-.89,4,4,0,0,0-1.43.51,1.27,1.27,0,0,0-.88-.6s-.06,0,0,.06a3.42,3.42,0,0,1-.57,1.09c.29-1.35.26-4.3-1.23-3.87-.74.21-.69,2.06-.57,2.59a7.39,7.39,0,0,0,.83,1.84,1.56,1.56,0,0,0-1.62.79s0,.11.07.09A5.85,5.85,0,0,1,68,454.8c-1.22.84-2.84,1.28-4,2C62.51,457.68,60.77,459.28,61.48,461.14Zm7.34-7.07a3.11,3.11,0,0,1-.41.4h0a5.42,5.42,0,0,1-1-2.36,4.25,4.25,0,0,1,.07-1.13c0-.49.38-.61,1-.38a4.24,4.24,0,0,1,.35,1.41A9,9,0,0,1,68.82,454.07Zm1.38-.57c-.44.28-.85.61-1.27.91a2.32,2.32,0,0,0,.7-1.56A2.28,2.28,0,0,1,70.2,453.5Zm.43,1.6a11.94,11.94,0,0,0-1.77-.55c.48-.28,1-.6,1.43-.89A3.8,3.8,0,0,1,70.63,455.1Zm2.19-1.25c-.61.39-1.22.78-1.82,1.18,0-.17,0-.34-.07-.5a3.89,3.89,0,0,0-.34-1,4.25,4.25,0,0,1,1-.37A1.13,1.13,0,0,1,72.82,453.85Zm.12.54a1.29,1.29,0,0,1-.21.8c-.33.49-1,.28-1.48.13A10,10,0,0,0,72.94,454.39Zm19.79-9.47h0c-.18,1.5-2.75,2.87-3.83,3.6a78.89,78.89,0,0,1-6.9,4.11c-2.28,1.22-4.59,2.39-7,3.41-.68.29-2.55,1.36-3.56,1.3a4.84,4.84,0,0,1-.42-1.8h0c.62.19,1.71.47,2-.41a3,3,0,0,0,.08-.89c.51-.33,1-.68,1.47-1,2-1.29,4.06-2.57,6.07-3.9C84.28,447,88.09,443.68,92.73,444.92ZM61.84,461.53c1.7,1.81,5.54,1.58,7.72,1.08a22.43,22.43,0,0,0,5.21-1.84c1.19-.62,2.9-1.45,3.5-2.73v0c2.46-2.17,6.87-2.22,9.94-2.67.76-.11,4.46-.28,5.66-1.24,0,0,0,.08,0,.11-.57,2.59-2.89,3.37-5.35,3.83s-5.13.54-7.64,1.14a5.27,5.27,0,0,0-2.28.94,12.79,12.79,0,0,1-4,2.78,24.19,24.19,0,0,1-6.39,1.56c-2.09.21-4.08.32-5.8-1.09a0,0,0,0,0,0,0,4.34,4.34,0,0,0-.4-1.25C62,461.91,61.92,461.72,61.84,461.53Zm-.16-.38s0,0,0,0a4.37,4.37,0,0,1,2.16-3.8,19,19,0,0,1,2.25-1.14A12.83,12.83,0,0,0,68.3,455a3.5,3.5,0,0,1,.48,2c0,.09.11.09.13,0a2.52,2.52,0,0,0-.33-2.15l.31.06a18.18,18.18,0,0,1,1.77.56c0,.26,0,.53.08.8a2.88,2.88,0,0,0,.31,1.13s0,.07,0,.1a.39.39,0,0,0,.28.21.79.79,0,0,0,.27.15c.06,0,.12-.06.08-.11h0c2.29-.08,9.75-4.29,10.51-4.71a62.07,62.07,0,0,0,7.9-4.87c.77-.57,2.69-1.81,2.77-3a8.14,8.14,0,0,1,1.57,4.43,22,22,0,0,1-.48,4.05c-.41.72-2.69.9-3.26,1-1.7.27-3.39.46-5.09.72a30.25,30.25,0,0,0-5.17,1.08c-.83.29-1.89.63-2.3,1.48h0a35.12,35.12,0,0,1-3.59,2.48A22.05,22.05,0,0,1,70.14,462c-2.75.69-5.87.82-8.39-.68C61.73,461.26,61.7,461.2,61.68,461.15Z"/><path class="cls-5" d="M66.47,455.24h0a2.59,2.59,0,0,1,1.62-.46,3.66,3.66,0,0,1,.59,2.27c0,.12.15.12.19,0a2.63,2.63,0,0,0-.31-2.25c1.14.21,2.24.93,3.45,1,.91.07,1.45-.32,1.46-1.26a1.94,1.94,0,0,0-1.67-1.75A5.09,5.09,0,0,0,69,454a4.1,4.1,0,0,0,.12-3.19c-.15-.43-.86-1.3-1.43-.91a2.38,2.38,0,0,0-.64,2.25,6,6,0,0,0,1,2.42A1.86,1.86,0,0,0,66.47,455.24Zm2.22-1.05v0l-.35.23a6.31,6.31,0,0,1-.85-1.87,3.62,3.62,0,0,1,0-1.57c.25-.89,1.17-.54,1.36.22A5.1,5.1,0,0,1,68.69,454.19Zm1.44.86a6.4,6.4,0,0,0-1.37-.39c.77-.59,1.83-1.49,2.69-1.5,1.62,0,2.07,2.42.57,2.31A6.81,6.81,0,0,1,70.13,455.05Z"/><path class="cls-7" d="M94.5,418.35c.19-2.09.6-1.85-1.45-2.22L86.8,415,80,413.77l-2.29-.41-.21,0a.94.94,0,0,1,.34.54c.63,2.55,1.26,5.16,1.8,7.8,15.09.95,7,16.77,6.51,28.55,2-1.39,4-2.86,5.82-4.27-1.83-2.42-.79-6.8-.44-9.47C92.36,430.4,93.94,424.45,94.5,418.35Z"/><path class="cls-6" d="M79.67,421.66c1.6,7.79,2.43,15.84.22,23.49a19.32,19.32,0,0,1-3.31,6.34c-.65.84-1.24,1.86-2.22,2.26-2.65,1.08-3.87,3.36-1.58,2.84,4.64-1,9.22-3.55,13.4-6.38C86.62,438.43,94.76,422.61,79.67,421.66Z"/><path class="cls-8" d="M73.62,457a70.42,70.42,0,0,0,18.7-10.84.18.18,0,0,0,.09-.26c-2.7-3.64.27-11.94,1.06-15.9.91-4.58,2.07-9.27,2.09-14a.49.49,0,0,0-.37-.47c-6-1.13-12-2.27-18-3.38a.56.56,0,0,0-.68.68c1.66,6.73,3.4,13.56,3.6,20.53a33.16,33.16,0,0,1-1.22,11.52c-1.44,4.27-2.51,7.64-6.44,9.54C69.22,456,71.58,457.7,73.62,457Zm.74-3.21c1-.4,1.57-1.42,2.22-2.26a19.32,19.32,0,0,0,3.31-6.34c3-10.25.47-21.21-2-31.29a.94.94,0,0,0-.34-.54l.21,0,2.29.41L86.8,415l6.25,1.13c2,.37,1.64.13,1.45,2.22-.56,6.1-2.14,12-2.94,18.12-.35,2.67-1.39,7,.44,9.47-5.51,4.29-12.29,9.09-19.22,10.65C70.49,457.11,71.71,454.83,74.36,453.75Z"/><path class="cls-7" d="M143.44,261.19a22.33,22.33,0,0,0,9.64-5.06c-.08-1.77-.28-3.56-.89-4.36-2.41-3.14-9.74,1.12-12.22,2.52-1,.55,3.8,20,4.14,22.34,1.07,7.44-.37,12.56-3.05,19.48a104,104,0,0,1-4.56,10.1c-.7,1.35-4.2,6.19-3.77,7.66.13.43.51,1.66,1,3.08C146,300.47,152.61,281.2,143.44,261.19Z"/><path class="cls-6" d="M153.81,267c-.18-2.38-.36-4.75-.59-7.12-.08-.85-.07-2.3-.14-3.77a22.33,22.33,0,0,1-9.64,5.06c9.17,20,2.56,39.28-9.67,55.76,1.23,3.31,3.25,7.7,4.61,5.67,6.11-13.54,15.73-25.84,15.87-41.29Q154.33,274.16,153.81,267Z"/><path class="cls-7" d="M63.83,261.19c-5.9,20.25-3.34,41.28,9.79,57.46.57-1.52,1-2.86,1.12-3.32.43-1.54-3.77-7.31-4.48-8.75a84.72,84.72,0,0,1-3.91-8.82c-1.35-3.75-3-7.32-3.6-11.31-.44-3.12.28-6.61.77-9.71.36-2.24,4.86-20.28,3.92-20.79a35.24,35.24,0,0,0-5-2.35c-3.47-1.27-7.23-2.43-7.74,2.61l-.12,1.13C56.81,260.27,60.66,260.39,63.83,261.19Z"/><path class="cls-6" d="M63.83,261.19c-3.17-.8-7-.92-9.22-3.85A207.42,207.42,0,0,0,53.16,283c.36,15.52,9.72,27.65,15.87,41.29,1.34,2,3.34-2.28,4.59-5.63C60.49,302.47,57.93,281.44,63.83,261.19Z"/><path class="cls-8" d="M63.84,287.63c-1.16-5.19.64-11.45,1.63-16.56s2.11-10.14,2.89-15.27a.48.48,0,0,0-.21-.53c-3.32-1.9-7.55-4.11-11.48-3.71a2.92,2.92,0,0,0-2.54,2.06c-1.07,5.46-1.18,11.29-1.54,16.83-.67,10.55-.52,20.05,3.51,29.89,3.44,8.37,8.19,16.24,12.61,24.13,1.48,2.74,3.36-.24,4.24-1.88,1.42-2.64,3.27-6.06,2-8.91C71,305.11,65.94,296.93,63.84,287.63Zm10.9,27.7c-.42,1.49-3.76,11.84-5.71,8.95C62.88,310.64,53.52,298.51,53.16,283a214.08,214.08,0,0,1,1.57-26.78c.51-5,4.27-3.88,7.74-2.61a35.24,35.24,0,0,1,5,2.35c.94.51-3.56,18.55-3.92,20.79-.49,3.1-1.21,6.59-.77,9.71.57,4,2.25,7.56,3.6,11.31a84.72,84.72,0,0,0,3.91,8.82C71,308,75.17,313.79,74.74,315.33Z"/><path class="cls-8" d="M154.82,268.8c-.29-5.28-.39-11-1.41-16.15a3,3,0,0,0-2.66-2.74c-3.94-.4-8.16,1.8-11.48,3.7a.49.49,0,0,0-.22.53c1.55,10.14,6,21.55,4.52,31.83-.67,4.78-3.31,10-5.22,14.34-1.76,4-3.95,7.79-5.86,11.71-1.5,3.09,3.86,15.15,6.22,10.79,4.42-7.88,9.17-15.75,12.6-24.13C155.37,288.8,155.41,279.38,154.82,268.8Zm-16.44,53.82c-1.95,2.9-5.23-7.32-5.65-8.75s3.07-6.31,3.77-7.66a104,104,0,0,0,4.56-10.1c2.68-6.92,4.12-12,3.05-19.48-.34-2.39-5.12-21.79-4.14-22.34,2.48-1.4,9.81-5.66,12.22-2.52,1.12,1.45.85,6.25,1,8.13.23,2.37.41,4.74.59,7.12q.52,7.14.44,14.31C154.11,296.78,144.49,309.08,138.38,322.62Z"/><path class="cls-9" d="M70,211.93c-5.2,2.8-9.51,8-12.38,12.69-5,8.2-7.34,17.54-11.14,26.26.9.28,1.79.61,2.67,1C52.07,236.86,58.15,221.58,70,211.93Z"/><path class="cls-9" d="M146,223.44a39.65,39.65,0,0,0-6.76-7.21,100.22,100.22,0,0,1,16.71,35c.6-.25,1.21-.48,1.83-.68C153.88,241.65,151.83,231.38,146,223.44Z"/><path class="cls-10" d="M64.64,255.34c1.24,0,2.48,0,3.75,0-.1-.34-.2-.68-.31-1-.32-.39-.64-.78-1-1.16.34.38.66.77,1,1.16l-.66-2.14C66.53,253.18,65.23,254,64.64,255.34Z"/><path class="cls-10" d="M69.92,256.68a110.24,110.24,0,0,1,6,24,154.81,154.81,0,0,1,1.88,26.37C81.3,290,80,270.77,69.92,256.68Z"/><path class="cls-10" d="M96.72,230c.92-3.71,4.62-5.56,5.55-9.26,1.85,3.7,5.55,5.55,7.41,9.26,8.42-5.06,15.31-11.65,22.07-18.38a28.91,28.91,0,0,0-7.11-2.08c-5.73,0-40,.29-47.34.29A15.72,15.72,0,0,0,72.06,211C78.55,219.05,88.53,223.64,96.72,230Z"/><path class="cls-11" d="M139.3,327.2a16.64,16.64,0,0,1-4.6-9.26,21.28,21.28,0,0,1-3.48-9,.13.13,0,0,1,.26,0,47,47,0,0,1-.44-6.59c-3.1-15.14.59-31.77,6.78-45.93.5-2.17,1.06-4.31,1.74-6.41l-.26-.57.26.57c.14-.43.28-.86.43-1.29a0,0,0,0,1,.09,0l-.3,1.74c.13.29.26.6.39.92a1.17,1.17,0,0,1,.05-.11,1.17,1.17,0,0,0-.05.11c.44,1.07.88,2.21,1.32,3.24a24.17,24.17,0,0,0,8.5-1c2-.68,3.95-1.65,5.93-2.45a100.22,100.22,0,0,0-16.71-35,32.06,32.06,0,0,0-7.46-4.6C125,218.36,118.1,225,109.68,230c-1.86-3.71-5.56-5.56-7.41-9.26-.93,3.7-4.63,5.55-5.55,9.26-8.19-6.37-18.17-11-24.66-19a20.07,20.07,0,0,0-2,1c-11.86,9.65-17.94,24.93-20.85,39.9a54.48,54.48,0,0,0,7.41,2.56,40.09,40.09,0,0,0,8.07,1c.59-1.33,1.89-2.16,2.78-3.17l-.27-.85c-.06-.21.26-.35.36-.15s.17.37.26.55a4.64,4.64,0,0,0,.25-.42,4.64,4.64,0,0,1-.25.42c.78,1.6,1.48,3.27,2.15,5C80,270.77,81.3,290,77.78,307.05c0,1.38-.1,2.76-.2,4.14a.2.2,0,0,1-.38.06,20.78,20.78,0,0,1-1.46,3.83c-.1.34-.2.67-.31,1,.11-.34.21-.67.31-1a45.93,45.93,0,0,1-3.55,5.84c-13.94,28-35.58,53-38.89,84.24,28.23,15.51,116.42,14.07,139.82,6C168.1,381.64,158.69,352.5,139.3,327.2Z"/><path class="cls-10" d="M131,302.35c0-7,1.35-14,2.62-20.84,1.52-8.21,2.29-16.85,4.16-25.09C131.63,270.58,127.94,287.21,131,302.35Z"/><path class="cls-9" d="M155.78,348.27c-4.88-8.08-10.8-15.45-16.17-23.19-1.53-2.21-3.35-4.6-4.91-7.14a16.64,16.64,0,0,0,4.6,9.26c19.39,25.3,28.8,54.44,33.82,83.92a15.43,15.43,0,0,0,4.53-2.24C170.94,388.32,167.17,367.08,155.78,348.27Z"/><path class="cls-9" d="M69.22,325.08c-4.86,6.92-10.16,13.58-14.66,20.73a158.78,158.78,0,0,0-14.31,28.81c-3.6,9.6-5.94,19.52-9.14,29.24.68.45,1.42.88,2.19,1.3,3.31-31.27,25-56.25,38.89-84.24C71.17,322.37,70.14,323.76,69.22,325.08Z"/><path class="cls-10" d="M139.78,250.49c-.17.9-.32,1.8-.48,2.7.28-.6.57-1.19.87-1.78C140,251.09,139.91,250.78,139.78,250.49Z"/><path class="cls-10" d="M140.17,251.41c-.3.59-.59,1.18-.87,1.78-.08.47-.17.93-.25,1.39l.07,0,2.37.09C141.05,253.62,140.61,252.48,140.17,251.41Z"/><path class="cls-12" d="M178.13,408.75c-1.61-9.76-4.62-19.43-7.62-28.84a167.56,167.56,0,0,0-11.72-28.33c-4.3-8-10-15.19-15.37-22.49-3.71-5-8.86-10.92-11.1-17.16-.81-11,.45-21,2.45-31.85,1.55-8.39,2.79-16.82,4.23-25.22l.07.06c6.06,1.85,13.82-.39,18.78-4.2a.23.23,0,0,0,.36-.23c-1.09-5.66-3.56-11.15-5.82-16.43-1.77-4.12-3.54-8.47-6.34-12C141,215.55,133.2,209,124.49,209.1h0a.18.18,0,0,0-.11,0h0s0,0,0,0c-8,0-41.1.36-46.63.36,0,0,0,0,0,0s0-.06-.07-.09l0,0h0c-7.35-1.24-14.06,6-18.15,11.17-2.94,3.7-4.87,7.9-6.81,12.18-2.6,5.72-5.34,11.84-6.53,18a.24.24,0,0,0,.37.23c5.61,4.08,15.3,6.49,22.13,4.72,2.45,7.82,4.89,15.47,6.25,23.68,1.7,10.17,1.6,20.36,2.31,30.6-1.59,6.14-6.48,11.89-10.07,16.85-5.1,7-10.46,13.85-15,21.24-10.08,16.29-18,36-21.21,55a6.66,6.66,0,0,1-.26-.67.06.06,0,0,0-.11,0,5.71,5.71,0,0,0,.23,1.45.36.36,0,0,0,0,.11.21.21,0,0,0,.11.23c13.17,11.65,109.84,22.44,147.68,5.47C178.83,409.52,178.49,408.86,178.13,408.75Zm-147-4.89c3.2-9.72,5.54-19.64,9.14-29.24a158.78,158.78,0,0,1,14.31-28.81c4.5-7.15,9.8-13.81,14.66-20.73,2.83-4,6.66-8.79,8-13.83a.2.2,0,0,0,.38-.06c.72-10.1-.23-20.51-1.68-30.51S72,260.15,67.51,251.17c-.1-.2-.42-.06-.36.15.42,1.34.83,2.67,1.24,4a44.8,44.8,0,0,1-11.82-.93c-3.51-.8-6.68-2.43-10.08-3.51,3.8-8.72,6.14-18.06,11.14-26.26,4.13-6.78,11.23-14.53,19.67-14.78,5.64,0,43.43-.29,47.34-.29,8.9,1.38,16,6.72,21.33,13.89,5.86,7.94,7.91,18.21,11.78,27.13-2.66.85-5.1,2.25-7.76,3.13-3.62,1.21-7.14,1-10.87.86l-.07,0c.33-1.94.67-3.89,1-5.83a0,0,0,1,0-.09,0c-3.64,10.41-4.33,22-6.33,32.79-1.66,9-3.5,18.3-2.18,27.43a.13.13,0,0,0-.26,0c.57,5.9,5.15,11.42,8.39,16.1,5.37,7.74,11.29,15.11,16.17,23.19,11.39,18.81,15.16,40.05,21.87,60.61C159.81,420.11,59.54,420.11,31.11,403.86Z"/><path class="cls-13" d="M70.26,212.67c4.33,1.16,8.19,3.6,12.27,5.4,3.69,1.62,7.77,3.38,10.61,6.34.65-2.9,2.42-5.65,4-8.15l.58-.95A45.65,45.65,0,0,1,71,206C70.32,207,70.44,210.83,70.26,212.67Z"/><path class="cls-14" d="M131.49,203.83q-3.8-.27-7.59-.51c-7.48-.45-15-.93-22.5-.88A165.89,165.89,0,0,0,78,204.67c-2.22.34-4.44.69-6.65,1.07A.5.5,0,0,0,71,206a45.65,45.65,0,0,0,26.68,9.32,56.38,56.38,0,0,1,4.56-6.73c.17-.2.44,0,.34.26l-.22.41,0,.06s0,.09,0,.08c.9.09,3.05,3.91,4,5.39a57,57,0,0,0,25.72-10.91Z"/><path class="cls-13" d="M106.34,214.78l.22.34c1.62,2.46,3.7,5.13,4.59,8a37.77,37.77,0,0,1,6-4.38,122,122,0,0,1,14.94-8.23c-.13-1.36-.61-6.65.63-6.57l-.68,0A57,57,0,0,1,106.34,214.78Z"/><path class="cls-12" d="M132.77,203.18c-10.41-.89-20.92-1.43-31.37-1.46-10.27,0-20.74,1.72-30.81,3.65a.26.26,0,0,0-.17.17c-.36,2.37-.1,4.76-.45,7.12a.37.37,0,0,0-.07.64.15.15,0,0,0,.16.09,164.21,164.21,0,0,1,23,11.26.2.2,0,0,0,.37.12c1.63-2.56,2.78-5.47,4.32-8.11,1.37-2.34,3-4.56,4.32-6.94.47,1.64,2.35,3.58,3.16,4.92,1.75,2.91,3.3,6.36,5.55,8.89a.24.24,0,0,0,.4-.2c2.18-1.17,4.21-2.71,6.3-4,4.77-3,10-5.24,14.73-8.4.1.05.23,0,.23-.13v-.06a.18.18,0,0,0,0-.19,32.44,32.44,0,0,1,.65-6.87A.37.37,0,0,0,132.77,203.18Zm-.66,7.3a122,122,0,0,0-14.94,8.23,37.77,37.77,0,0,0-6,4.38c-.89-2.84-3-5.51-4.59-8-.73-1.1-3.19-5.63-4.18-5.73.05,0,.06,0,0-.08l0-.06.22-.41c.1-.21-.17-.46-.34-.26a65,65,0,0,0-5.14,7.68c-1.54,2.5-3.31,5.25-4,8.15-2.84-3-6.92-4.72-10.61-6.34-4.08-1.8-7.94-4.24-12.27-5.4.2-2.08,0-6.75,1.06-6.93,2.21-.38,4.43-.73,6.65-1.07a165.89,165.89,0,0,1,23.43-2.23c7.5-.05,15,.43,22.5.88q3.8.24,7.59.51l1.25.08C131.5,203.83,132,209.12,132.11,210.48Z"/><path class="cls-10" d="M80.91,258.07c-2,9.57,17.67,7.82,17.58-.84a.26.26,0,0,0-.51-.07c-1.59,4-4.84,5.92-9,6.41-3.82.44-8-1.07-7.94-5.49a0,0,0,0,0-.09,0Z"/><path class="cls-10" d="M111.64,258.08c.13,8.76,17,7.39,16.58-.57a.27.27,0,0,0-.53-.07,8.69,8.69,0,0,1-7.91,5.8c-3.76.36-7-1.44-7.79-5.21a.18.18,0,0,0-.35.05Z"/><path class="cls-15" d="M16.48,163.19a6.67,6.67,0,0,0-3.68,2.9,14.68,14.68,0,0,0-2,11.39c.84,3,2.87,6.14,6.64,7l.68.14C11.82,178.62,9.08,169.35,16.48,163.19Z"/><path class="cls-6" d="M24.43,184.43c2.29-4.36,1.78-9.61-.76-14.08-2.4,2-2.74,4.16-3.06,7,0,.22-.42.38-.54.13a5.69,5.69,0,0,1,2.76-7.28c-4.12.75-7,3.22-9.27,6.68a.4.4,0,0,1-.72-.16c-.42-3.1,5.27-7.48,9.78-8a19.94,19.94,0,0,0-6.09-5.54l-.05,0c-7.4,6.16-4.66,15.43,1.64,21.47A15.87,15.87,0,0,0,24.43,184.43Z"/><path class="cls-7" d="M26.8,164.86c-3.23-1.41-7.11-2.66-10.27-1.69a19.94,19.94,0,0,1,6.09,5.54,4.73,4.73,0,0,1,3.89,1,.1.1,0,0,1-.08.17,15.63,15.63,0,0,0-2.49.06.13.13,0,0,1,0,.16l-.23.2c2.54,4.47,3,9.72.76,14.08,1.32-.27,2.64-.63,4-1h.07Q27.7,174.16,26.8,164.86Z"/><path class="cls-7" d="M177.24,167.5a2.16,2.16,0,0,1-.91-.91l-1.36,1c-.14.1-.34,0-.31-.15.29-1.32,1.91-2.52,3.4-3.18a12.61,12.61,0,0,1,4.92-5.84c-.1-.31-.2-.62-.32-.92-2.24-1.07-4.72-.84-7.33-.37-.52,6.6-1,13.2-1.36,19.8,1.79-.19,3.73.15,5.55,0A14.33,14.33,0,0,1,177.24,167.5Z"/><path class="cls-15" d="M186.89,166.48c0-2.66-.36-6.14-2.84-8.09a8.31,8.31,0,0,0-1.39-.86c.12.3.22.61.32.92l.53-.35-.53.35a26.87,26.87,0,0,1,.12,17.22C186.34,173.4,186.91,170,186.89,166.48Z"/><path class="cls-6" d="M183,158.45a12.61,12.61,0,0,0-4.92,5.84c.31-.13.61-.25.89-.34,1.7-.52,4.49-.58,5.1,1.27,0,.15-.12.31-.31.26a11.08,11.08,0,0,0-2.58-.82,6,6,0,0,0-2.56.51,9,9,0,0,0-1,.56c-.07.27-.13.54-.19.81a2.05,2.05,0,0,0,.94.51,19.59,19.59,0,0,1,2.42.35.22.22,0,0,1,0,.44,4.75,4.75,0,0,1-3.51-.34,14.33,14.33,0,0,0,2.28,9.47,6.29,6.29,0,0,0,2.71-.75,8.54,8.54,0,0,0,.87-.55A26.87,26.87,0,0,0,183,158.45Z"/><path class="cls-6" d="M177.39,166.54c.06-.27.12-.54.19-.81l-.62.41Z"/><path class="cls-7" d="M105.05,77.28c11.47,27.34,40.59,37.88,61.73,56.44l0-.68c1.4-32.86,1-66.67.05-75-7.28-1.93-15.44-2.48-22.61-3.37-15.25-1.9-30.64-2.11-46-2C84.25,52.8,70,52.21,56.12,54c-10.44,1.38-22.54,4-31,10,.82,20.17,2.23,40.48,3.73,60.81,0,.07,0,.15,0,.23.16,2.09.32,4.19.47,6.28C59.45,120.64,88.67,106.58,105.05,77.28Z"/><path class="cls-7" d="M106,168c-4.63-1.85-10.18.92-15.73,0,1.85,4.63,7.4,5.55,12,4.63C104.12,171.69,107.82,168.91,106,168Z"/><path class="cls-6" d="M105.05,77.28c-16.38,29.3-45.6,43.36-75.7,54.12,1.62,21.87,3.28,43.74,4.35,65.49,5.24,2.2,10.28,4.78,15.75,6.64a143.73,143.73,0,0,0,18.33,5,148.61,148.61,0,0,0,38.44,2.57c16.78-1.1,33.53-4.18,48.58-10.38,2.66-1.87,4.63-4.12,5.34-6.62,3.53-12.33,5.58-36.05,6.64-60.4C145.64,115.16,116.52,104.62,105.05,77.28Zm-2.78,95.34c-4.63.92-10.18,0-12-4.63,5.55.92,11.1-1.85,15.73,0C107.82,168.91,104.12,171.69,102.27,172.62Z"/><path class="cls-15" d="M20.83,67.84c-2.74,3-1.92,4.41-1.56,8.31C23,115.9,26.64,155.66,30,195.44c1.24.45,2.46.94,3.67,1.45-2.17-44.12-6.77-88.77-8.56-132.81A27.81,27.81,0,0,0,20.83,67.84Z"/><path class="cls-7" d="M180.15,70c-.07-4.11-.36-6.33-5.07-8.83a38.75,38.75,0,0,0-8.22-3.08c1.74,20.33.86,106.46-6.72,136.06-.64,2.51-2.68,4.75-5.34,6.62A98.78,98.78,0,0,0,173.06,191a.43.43,0,0,1,.13-.05c-.05-4.33,0-8.67.19-13-.44-.15-.53-.75,0-.85h0c.61-15.24,2.25-30.52,3.35-45.68C178.23,111,180.52,90.4,180.15,70Z"/><path class="cls-8" d="M188.3,165.44c-.05-6.49-5.56-11.68-13-8.65,1-12.61,2.15-25.22,3.06-37.81.94-12.84,1.87-25.69,2.42-38.55.23-5.57,2.35-13.74-2.61-18.15-6.18-5.49-17-6.1-25.29-7.17a354.88,354.88,0,0,0-40.47-3.23c-14.55-.22-29.27-.25-43.81.29a118.78,118.78,0,0,0-29,4.36c-8,2.35-16.74,6.32-21.24,12.73-1.66,2.38-.24,6.23,0,8.8,2.66,28.83,5.63,57.64,8.34,86.47-2.7-2.56-8.67-4-12.08-1.61-4.36,3.05-5.33,8.32-5.07,12.88.49,8.54,10.57,12.67,19,8.23q.51,5.73,1,11.47a.19.19,0,0,0,0,.32c4.59,3.34,10.7,5.42,16.17,7.47a144.85,144.85,0,0,0,60.45,8.81c23-1.28,50.19-6.66,67.23-20.82.16-.14.05-.32-.12-.36.13-4.32.34-8.65.58-13,4.42.25,7.7.6,11.27-2.1C188.4,173.41,188.32,168.75,188.3,165.44Zm-159.85,18c-3.75.94-7.08,2-11,1.07-3.77-.9-5.8-4-6.64-7a14.68,14.68,0,0,1,2-11.39c3.19-5,9.3-3.29,14-1.23q.89,9.28,1.72,18.58Zm145-6.41h0c-.55.1-.46.7,0,.85-.16,4.35-.24,8.69-.19,13a.43.43,0,0,0-.13.05c-18.94,13-42.87,18.59-66.84,20.16a148.61,148.61,0,0,1-38.44-2.57,143.73,143.73,0,0,1-18.33-5c-6.74-2.29-12.8-5.68-19.42-8.09-3.39-39.78-7-79.54-10.76-119.29-.36-3.9-1.18-5.35,1.56-8.31C29,59,43.73,55.68,56.12,54,70,52.21,84.25,52.8,98.23,52.69c15.38-.11,30.77.1,46,2,10,1.25,22,1.81,30.83,6.45,4.71,2.5,5,4.72,5.07,8.83.37,20.43-1.92,41-3.39,61.39C175.66,146.52,174,161.8,173.41,177Zm8.82-.82c-2.47,1.4-5.52.45-8.26.74.37-6.6.84-13.2,1.36-19.8,3.16-.57,6.13-.79,8.72,1.23s2.82,5.43,2.84,8.09C186.91,170.33,186.25,174,182.23,176.22Z"/><path class="cls-8" d="M179,164c-1.66.51-3.95,1.94-4.29,3.52,0,.16.17.25.31.15l1.36-1c.66,1.34,2.9,1.71,4.42,1.25a.22.22,0,0,0,0-.44,19.59,19.59,0,0,0-2.42-.35,2.91,2.91,0,0,1-1.37-.91,9.33,9.33,0,0,1,1.64-1,6,6,0,0,1,2.56-.51,11.08,11.08,0,0,1,2.58.82c.19.05.36-.11.31-.26C183.44,163.37,180.65,163.43,179,164Z"/><path class="cls-8" d="M12.84,176.67a.4.4,0,0,0,.72.16c2.27-3.46,5.15-5.93,9.27-6.68a5.69,5.69,0,0,0-2.76,7.28c.12.25.51.09.54-.13.34-2.88.67-5.08,3.29-7.15a.13.13,0,0,0,0-.16,15.63,15.63,0,0,1,2.49-.06.1.1,0,0,0,.08-.17C22.68,166.07,12.27,172.52,12.84,176.67Z"/><path class="cls-4" d="M167.12,147.06s-7.18-28.51-30.89-25.9c-6.3.7-12.82,7-17,12.76a48.52,48.52,0,0,0-7,14.58Z"/><path class="cls-8" d="M167.25,147c-1.9-12.56-13.14-25.35-26.15-26.49-13.84-1.21-24.63,12.71-28,24.6,0,.08.09.11.12,0,4.18-12,14-24.23,27.84-23.94,13.28.29,22.51,14.29,25.81,25.67-6.77-1.57-14.09.15-20.85,1,0,0,0,0,0,0,7.09.13,13.93-1.31,21.06-.69C167.27,147.24,167.32,147.06,167.25,147Z"/><path class="cls-16" d="M144.69,121.65c-5.82-1.37-12.68.18-18.19,4.11A14,14,0,1,0,152,133.92,14.2,14.2,0,0,0,144.69,121.65Z"/><path class="cls-17" d="M137.91,128a5.9,5.9,0,1,0,5.9,5.89A5.9,5.9,0,0,0,137.91,128Z"/><path class="cls-4" d="M132,123.81a4.22,4.22,0,1,0,4.22,4.22A4.22,4.22,0,0,0,132,123.81Z"/><path class="cls-4" d="M137.91,133.92a1.69,1.69,0,1,1-1.68-1.68A1.69,1.69,0,0,1,137.91,133.92Z"/><path class="cls-4" d="M34.47,145.12s7.19-28.5,30.9-25.89c6.3.69,12.81,7,17,12.76a48.64,48.64,0,0,1,7,14.57Z"/><path class="cls-8" d="M60.5,118.79c-13.25.28-23.82,14.49-26.06,26.42h0a.17.17,0,0,0,0,.33c7.13-.62,14,.82,21.07.69,0,0,0,0,0,0-6.79-.9-14.16-2.63-20.95-1,3-12,12.84-24.54,25.91-25.68,14-1.22,23.39,12.65,27.75,24,.07.17.33.11.29-.07C85.45,130.78,74.14,118.49,60.5,118.79Z"/><path class="cls-16" d="M77.14,125.86c-4.12-4.11-11.32-7.92-19.08-6a14,14,0,1,0,19.08,6Z"/><path class="cls-17" d="M70.54,132.24a5.9,5.9,0,1,1-5.9-5.9A5.9,5.9,0,0,1,70.54,132.24Z"/><path class="cls-4" d="M63,126.34a4.22,4.22,0,1,1-4.22-4.21A4.21,4.21,0,0,1,63,126.34Z"/><path class="cls-4" d="M64.64,132.24A1.69,1.69,0,1,1,63,130.55,1.68,1.68,0,0,1,64.64,132.24Z"/><path class="cls-8" d="M101.81,141.26a53.53,53.53,0,0,1-12,26.67.26.26,0,0,0,.11.44c4.94.82,9.89-.33,14.76-1.16.17,0,.13-.3,0-.29-4,.14-7.83,1.17-11.82,1.25-3.44.07-1.08-1.75-.31-2.77a47.93,47.93,0,0,0,2.88-4.56,46.09,46.09,0,0,0,6.47-19.58Z"/><path class="cls-8" d="M86,184.9c4,4.3,11.45,2.73,16.37,1.37,5.93-1.63,13.36-5,16.91-10.26a.44.44,0,0,0-.7-.52c-5.89,8.1-23.39,15.46-32.51,9.32a.06.06,0,0,0-.07.09Z"/><path class="cls-8" d="M118.16,171.38a8.15,8.15,0,0,1,4.43,2.17c1.22,1.1,2,2.58,3.13,3.75a.24.24,0,0,0,.4-.23c-1.18-3.07-4.45-6.26-7.91-6-.19,0-.26.32,0,.35Z"/><path class="cls-18" d="M139,254.7l.07,0h.07c0-.12-.05-.25-.06-.37C139.06,254.44,139,254.57,139,254.7Z"/><path class="cls-19" d="M74.94,280.8c-1.44-9.9-3-20.53-7.47-29.51a.19.19,0,0,0-.35.15c.41,1.34.82,2.67,1.24,4h-.07a.47.47,0,0,1,.08.4c-.78,5.13-1.9,10.19-2.89,15.28s-2.79,11.37-1.62,16.55a64.51,64.51,0,0,0,5,13.51h8A174.58,174.58,0,0,0,74.94,280.8Z"/><path class="cls-19" d="M52.6,270.5c.35-5.49.29-10.35,1.33-15.76A35.33,35.33,0,0,1,46,250.8c3.8-8.72,5.72-18.18,10.72-26.39,2.89-4.74,8.16-10.83,13.39-13.63l.12-1c-26.16-4.56-40.69-13.8-40.69-13.8l-4-65.41c-.77,15.38-2.31,30.73-3.2,46.11-.72,12.6-1.11,25.19-1.46,37.8a274.81,274.81,0,0,1-.11,66.6v-.93c-1.32,7-3.05,14.05-4.4,21.08H56.46c-.11-.26-.24-.53-.35-.8C52.08,290.54,51.93,281,52.6,270.5Z"/><path class="cls-19" d="M143.58,286c1.43-10.11-2.83-21.32-4.43-31.33h-.07l-.07,0c0-.13.05-.26.08-.39l0-.12a.54.54,0,0,1,.13-.46c.28-1.62.56-3.24.86-4.86,0-.06-.08-.09-.1,0-3.64,10.41-3.45,22-5.45,32.76a125.08,125.08,0,0,0-2.56,19.58h6c.13-.27.27-.55.39-.82C140.27,296,142.91,290.79,143.58,286Z"/><path class="cls-19" d="M184.62,140.63A36.74,36.74,0,0,0,177,129.3c0,.41-1.24,4.34-1.23,4.75l-2.53,57.37s-14.07,11.47-40.69,17.39l-.1,2c5.41,2.5,10.18,7.3,13.84,12.26,5.86,7.95,8.1,18.48,12,27.4a41.44,41.44,0,0,1-4.68,2.78l.06.25s.95,10,1.24,15.32c.59,10.58.55,20-3.51,29.88-.33.83-.69,1.65-1.06,2.46h32.27C183.88,247.66,186.14,194.14,184.62,140.63Z"/><path class="cls-19" d="M139.06,254.19l0,.12c0-.19.06-.38.1-.58A.54.54,0,0,0,139.06,254.19Z"/><path class="cls-20" d="M99.5,2.3c.21.22.38.23.53.13-4.15-2.68-10.37-1.22-14.72.19A96.74,96.74,0,0,0,64.05,13C51,21.21,37.1,31.26,29,44.72,16.4,65.65,9.88,90,5.94,113.92,1.59,140.33.56,167,1.21,193.75,1.77,216.89,3.1,240,4.44,263.09Q5.22,276.62,6,290.14c.18,2.93.35,5.86.53,8.78,0,.7.09,1.39.13,2.08v.06h3.88C8.17,195.31-26.89,41.8,99.5,2.3Z"/><path class="cls-20" d="M53.8,90.62C68.64,80.85,83.67,71.39,93,56.11,73,78.62,38.36,90,24.73,117,31.7,106,42.69,97.92,53.8,90.62Z"/><path class="cls-20" d="M163.81,68.26c-9.28-21.87-28.61-38.54-50.42-48.12C132.58,32.5,151.82,48.65,163.81,68.26Z"/><path class="cls-20" d="M145.81,74.86c12.3,9.25,26.6,18.51,34.85,31.86-10.14-22.87-34.78-32.93-54.32-49.81-5.94-5.09-8.78-13.29-14.92-18.9C118.39,53.72,132.38,64.77,145.81,74.86Z"/><path class="cls-19" d="M64.32,99.49C50.7,111.42,30.81,117.08,22,133.05c7.89-11.09,23.13-17.43,33.93-24.47,9.42-6.14,17.79-14.39,25.27-22.74A108.1,108.1,0,0,0,96.69,64.29C88.6,77.79,75.89,88.64,64.32,99.49Z"/><path class="cls-21" d="M114.2,1.57C109.79.61,104.89.48,102,4a.22.22,0,0,1-.38-.13A7.87,7.87,0,0,0,100,2.43c-.15.1-.32.09-.53-.13-126.39,39.5-91.33,193-88.93,298.76h5.84C17.77,294,19.5,287,20.82,280v.93a275.4,275.4,0,0,0,.11-66.61c-.08,3-.16,6.05-.25,9.08a.17.17,0,0,1-.34,0c-.75-30.61,1.36-61.92,4.71-92.36a35.33,35.33,0,0,0-7.62,14.24c-.07.25-.43.14-.39-.11A27,27,0,0,1,22,133.05c8.86-16,28.75-21.63,42.37-33.56,11.57-10.85,24.28-21.7,32.37-35.2a69.34,69.34,0,0,0,4.67-11.06l0,0,0,0c.15-.49.32-1,.47-1.46,0,0,0,0,0,0h0s0,0,0,0c.08.28.18.55.26.83,0-.11.08-.21.11-.31,0,.1-.07.2-.11.31a68.49,68.49,0,0,0,2.51,6.77c15.08,26.09,38.53,43.16,65.17,58.64,6.45,4,12.88,10.85,14.45,19.27a26.22,26.22,0,0,1,2.4,7.88c0,.25-.32.36-.39.11a35.64,35.64,0,0,0-1.64-4.77c1.52,53.52-3.12,107-4.47,160.56h13.29c.87-18.14,2.76-36.52,4.13-54.39C203.08,158.31,205.85,44.86,114.2,1.57ZM38.7,70.7c.6-1,1.24-2.09,1.88-3.12,9.94-21,29.68-38.09,50.46-47.72l1.88-1.21c.1-.06.18.08.09.15l-.55.41L93,19l-.55.25c-9.83,7.44-19.74,14.87-28.72,23.36A202,202,0,0,0,39.18,71a.27.27,0,0,1-.15.11c-.21.52-.43,1-.63,1.56.2-.52.42-1,.63-1.56A.27.27,0,0,1,38.7,70.7ZM22.79,107.55a52.33,52.33,0,0,1,3.64-5.34c9.69-22.7,36.49-32.58,54.55-49A90.57,90.57,0,0,0,90.87,41.5a51.83,51.83,0,0,0,2.61-5.65c.06-.14.29-.09.24.07-.36,1.09-.77,2.16-1.2,3.21.16-.25.33-.48.49-.73-.16.25-.33.48-.49.73-5.83,14.16-17.84,24.48-29.8,33.68C49.4,83.05,35.88,92.64,25.13,105.61a46.16,46.16,0,0,0-1.54,5.92,46.16,46.16,0,0,1,1.54-5.92q-.94,1.14-1.86,2.31C23.05,108.2,22.62,107.84,22.79,107.55ZM59,88.59c-15,9.86-29.94,20.19-37.6,36.66-.21.67-.42,1.33-.6,2,.18-.68.39-1.34.6-2q-1.08,2.3-2,4.77a.23.23,0,0,1-.44-.13A46.88,46.88,0,0,1,24.73,117C38.36,90,73,78.62,93,56.11c.86-1.41,1.69-2.85,2.45-4.37,0-.06.15,0,.12,0C89.08,68.67,73.53,79.06,59,88.59ZM111,18.8c-.09-.07,0-.21.09-.15l2.33,1.49c21.81,9.58,41.14,26.25,50.42,48.12.49.81,1,1.62,1.47,2.44a.27.27,0,0,1-.34.39c.42,1.12.83,2.26,1.2,3.41-.37-1.15-.78-2.29-1.2-3.41a.29.29,0,0,1-.14-.11,193.85,193.85,0,0,0-24.56-28.41c-8.93-8.31-18.61-15.71-28.33-23.06L110.6,19c0,.93,0,.93.93.93-.93,0-.93,0-.93-.93l1.31.55Zm-.71,17.12c-.05-.16.18-.21.23-.07.29.74.61,1.45.93,2.16,6.14,5.61,9,13.81,14.92,18.9,19.54,16.88,44.18,26.94,54.32,49.81.17.28.36.55.53.83a.28.28,0,0,1,0,.33c.25.59.49,1.19.72,1.79-.23-.6-.47-1.2-.72-1.79a.28.28,0,0,1-.45,0c-11.06-14.21-25.45-24.27-39.56-35.2-12.37-9.57-24.76-20.25-30.32-35.23-.37-.32-.75-.64-1.15-.94.4.3.78.62,1.15.94C110.64,37,110.43,36.45,110.26,35.92ZM184.52,130C177.68,110.7,161.35,99.37,145,88.59c-13.86-9.1-28.65-19-35.61-34.56l-.6-.82.6.82c-.33-.73-.65-1.48-.94-2.24,0-.07.08-.11.11,0,.86,1.71,1.8,3.32,2.78,4.89,14.92,18.81,37.4,27.12,55.77,42.86,7.91,7.92,15.82,16.68,17.38,28.65.18.57.35,1.16.51,1.75A.23.23,0,0,1,184.52,130Z"/><path class="cls-19" d="M169.84,118c-26.64-15.48-50.09-32.55-65.17-58.64,4.24,9.82,10.68,18.55,17.91,26.47,7.55,8.27,15.78,16.69,25.27,22.74,12.12,7.73,29.78,14.93,36.44,28.7C182.72,128.86,176.29,122,169.84,118Z"/><path class="cls-20" d="M151.1,91.22c14.22,9.45,28.07,20.16,33.35,36.92-1.56-12-9.47-20.73-17.38-28.65-18.37-15.74-40.85-24-55.77-42.86C120.87,71.93,136.16,81.3,151.1,91.22Z"/><path class="cls-20" d="M58.17,74.86c12.41-9.35,25.31-19.47,32.7-33.36A90.57,90.57,0,0,1,81,53.21c-18.06,16.42-44.86,26.3-54.55,49C34.88,91.21,47.31,83.06,58.17,74.86Z"/><path class="cls-20" d="M91,19.86C70.26,29.49,50.52,46.53,40.58,67.58,52.69,48.12,71.93,32.11,91,19.86Z"/><path class="cls-20" d="M199.11,122.68c-3.45-24.23-9-49.12-20.46-70.92-8.38-15.88-21.24-27.25-36.24-36.93-7.24-4.68-15-9.18-23.2-11.86a50.56,50.56,0,0,0-5-1.4c91.65,43.29,88.88,156.74,83.41,245.1-1.37,17.87-3.26,36.25-4.13,54.39h3.58a1.5,1.5,0,0,1,0-.31l.36-5.91q.74-12.3,1.46-24.6c1.28-21.93,2.58-43.86,3.32-65.81C203.11,177.13,203,149.76,199.11,122.68Z"/><path class="cls-22" d="M76.83,301.06h-8a1.79,1.79,0,0,1,.21.83v0a1.09,1.09,0,0,1,.08.15h7.79A2,2,0,0,1,76.83,301.06Z"/><path class="cls-22" d="M137.81,302.07a1.94,1.94,0,0,1,.41-1H131.8a1.66,1.66,0,0,1,0,1Z"/><path class="cls-22" d="M199,115.11c-3.72-23.26-9.87-46.75-21.38-67.45-8.67-15.59-23.42-26.84-38.39-36C131.88,7.09,124,3,115.5,1c-4.66-1.1-10.29-1.39-13.67,2.54-7.22-8.69-24.55,1.11-31.75,5C56,16,41.52,26.39,31.61,39.09,25.86,46.45,21.86,55.43,18.34,64A214.92,214.92,0,0,0,7.79,99c-5.32,24-7.42,48.68-7.73,73.25-.55,43.08,3,86.3,5.66,129.29a.5.5,0,0,0,.5.5H56.91a2,2,0,0,1-.4-1H6.69V301c0-.69-.09-1.38-.13-2.08-.18-2.92-.35-5.85-.53-8.78q-.81-13.53-1.59-27.05C3.1,240,1.77,216.89,1.21,193.75c-.65-26.73.38-53.42,4.73-79.83C9.88,90,16.4,65.65,29,44.72,37.1,31.26,51,21.21,64.05,13A96.74,96.74,0,0,1,85.31,2.62c5-1.62,12.37-3.29,16.34,1.21A.22.22,0,0,0,102,4c4-4.91,12.11-2.64,17.18-1,8.24,2.68,16,7.18,23.2,11.86,15,9.68,27.86,21.05,36.24,36.93,11.51,21.8,17,46.69,20.46,70.92,3.85,27.08,4,54.45,3.08,81.75-.74,21.95-2,43.88-3.32,65.81q-.72,12.3-1.46,24.6l-.36,5.91a1.5,1.5,0,0,0,0,.31H150.62a1.87,1.87,0,0,1-.27.31l-.13.11a2.32,2.32,0,0,1-.22.59h47.51a.52.52,0,0,0,.51-.51c2.22-36.5,4.74-73,5.56-109.6C204.15,166.23,203.09,140.55,199,115.11Z"/><path class="cls-22" d="M147.85,108.58c-9.49-6-17.72-14.47-25.27-22.74-9-9.91-16.86-21.09-20.68-34.07,0,0,0,0,0,0h0s0,0,0,0c-3.84,13-11.69,24-20.68,34.07-7.48,8.35-15.85,16.6-25.27,22.74C41.67,117.84,19.74,125.89,17,145.16c0,.25.32.36.39.11A35.33,35.33,0,0,1,25.05,131c-3.35,30.44-5.46,61.75-4.71,92.36a.17.17,0,0,0,.34,0c.43-15.64.81-31.25,1.71-46.87.88-15.38,2.42-30.73,3.2-46.11,9.5-10.54,24.28-16.21,35.82-25,8.87-6.74,16.9-15.22,24-23.72s14-18.64,16.41-29.79c2.4,11.22,9.22,21.06,16.4,29.79a148.25,148.25,0,0,0,24,23.72c11,8.34,24.93,13.87,34.44,23.49-.69,15.82-.31,31.73-.31,47.56,0,16.68-.14,33.38.27,50.06a.15.15,0,0,0,.29,0c.4-16.09.28-32.2.28-48.3,0-16.34.4-32.75-.31-49.08a35.9,35.9,0,0,1,9.32,16.09c.07.25.43.14.39-.11C184,126,162.1,117.66,147.85,108.58Z"/><path class="cls-22" d="M19.46,130C26.29,110.7,42.62,99.37,59,88.59c14.51-9.53,30.06-19.92,36.55-36.8,0-.07-.08-.11-.12,0C86.47,69.67,70,80,53.8,90.62,38.77,100.5,24,111.77,19,129.89A.23.23,0,0,0,19.46,130Z"/><path class="cls-22" d="M23.27,107.92c11-14.16,25.35-24.27,39.45-35.11,12.85-9.88,25.75-21.05,31-36.89,0-.16-.18-.21-.24-.07-6.6,16.89-21.28,28.43-35.31,39C45.62,84.34,31,93.73,22.79,107.55,22.62,107.84,23.05,108.2,23.27,107.92Z"/><path class="cls-22" d="M39.18,71A202,202,0,0,1,63.74,42.57C72.88,33.92,83,26.38,93,18.8c.09-.07,0-.21-.09-.15C72.19,31.68,51,49.17,38.7,70.7A.28.28,0,0,0,39.18,71Z"/><path class="cls-22" d="M145,88.59c16.39,10.78,32.72,22.11,39.56,41.43a.23.23,0,0,0,.44-.13c-4.83-17.76-19.15-28.9-33.86-38.67-16.47-10.94-33.4-21.17-42.58-39.48,0-.06-.14,0-.11,0C114.9,68.67,130.45,79.06,145,88.59Z"/><path class="cls-22" d="M141.15,72.72c14.11,10.93,28.5,21,39.56,35.2.22.28.65-.08.48-.37C173,93.74,158.36,84.31,145.81,74.86c-14-10.55-28.72-22.13-35.32-39,0-.14-.28-.09-.23.07C115.5,51.74,128.35,62.81,141.15,72.72Z"/><path class="cls-22" d="M140.24,42.57A193.85,193.85,0,0,1,164.8,71a.28.28,0,0,0,.48-.28c-12.3-21.53-33.49-39-54.22-52-.1-.06-.18.08-.09.15C121,26.39,131,34,140.24,42.57Z"/></g></g></svg>