<svg xmlns="http://www.w3.org/2000/svg" viewBox="0 0 136.41 125.5"><defs><style>.cls-1{fill:#c03a2b;}.cls-2{fill:#ed7161;}</style></defs><title>heart</title><g id="Layer_2" data-name="Layer 2"><g id="Layer_1-2" data-name="Layer 1"><path class="cls-1" d="M67.8,22.17A35.67,35.67,0,0,1,100.51,0c19.7,0,33.89,16.86,35.68,37,0,0,1,5-1.16,14A61.71,61.71,0,0,1,116.21,82.3L67.8,125.5,20.19,82.3A61.75,61.75,0,0,1,1.38,50.91C-.74,41.93.22,37,.22,37,2,16.86,16.19,0,35.9,0,50.53,0,62.29,9.12,67.8,22.17Z"/><path class="cls-2" d="M16.37,43.86a2.72,2.72,0,0,1-2.73-2.72A27.32,27.32,0,0,1,40.92,13.85a2.73,2.73,0,0,1,0,5.46A21.85,21.85,0,0,0,19.1,41.14,2.72,2.72,0,0,1,16.37,43.86Z"/></g></g></svg>